<?xml version="1.0" encoding="UTF-8" standalone="no"?>
<svg
   xmlns:dc="http://purl.org/dc/elements/1.1/"
   xmlns:cc="http://creativecommons.org/ns#"
   xmlns:rdf="http://www.w3.org/1999/02/22-rdf-syntax-ns#"
   xmlns:svg="http://www.w3.org/2000/svg"
   xmlns="http://www.w3.org/2000/svg"
   xmlns:sodipodi="http://sodipodi.sourceforge.net/DTD/sodipodi-0.dtd"
   xmlns:inkscape="http://www.inkscape.org/namespaces/inkscape"
   width="400"
   height="400"
   viewBox="0 0 105.83333 105.83333"
   version="1.1"
   id="svg841"
   inkscape:version="1.0 (4035a4fb49, 2020-05-01)"
   sodipodi:docname="icons.svg"
   inkscape:export-filename="C:\Users\David\git\piomaximum\img\icons\jine.png"
   inkscape:export-xdpi="96"
   inkscape:export-ydpi="96">
  <defs
     id="defs835" />
  <sodipodi:namedview
     inkscape:snap-global="false"
     inkscape:snap-text-baseline="true"
     inkscape:snap-center="true"
     inkscape:snap-object-midpoints="true"
     inkscape:snap-bbox-midpoints="true"
     inkscape:snap-bbox-edge-midpoints="true"
     inkscape:bbox-nodes="true"
     inkscape:bbox-paths="true"
     inkscape:snap-bbox="true"
     inkscape:snap-midpoints="true"
     inkscape:snap-intersection-paths="true"
     inkscape:object-paths="true"
     inkscape:snap-smooth-nodes="true"
     units="px"
     inkscape:pagecheckerboard="true"
     id="base"
     pagecolor="#ffffff"
     bordercolor="#666666"
     borderopacity="1.0"
     inkscape:pageopacity="0"
     inkscape:pageshadow="2"
     inkscape:zoom="0.35"
     inkscape:cx="-449.4712"
     inkscape:cy="763.65041"
     inkscape:document-units="mm"
     inkscape:current-layer="layer1"
     inkscape:document-rotation="0"
     showgrid="false"
     fit-margin-top="0"
     fit-margin-left="0"
     fit-margin-right="0"
     fit-margin-bottom="0"
     inkscape:window-width="1920"
     inkscape:window-height="1017"
     inkscape:window-x="-8"
     inkscape:window-y="-8"
     inkscape:window-maximized="1" />
  <metadata
     id="metadata838">
    <rdf:RDF>
      <cc:Work
         rdf:about="">
        <dc:format>image/svg+xml</dc:format>
        <dc:type
           rdf:resource="http://purl.org/dc/dcmitype/StillImage" />
        <dc:title />
      </cc:Work>
    </rdf:RDF>
  </metadata>
  <g
     inkscape:label="znaky"
     inkscape:groupmode="layer"
     id="layer1"
     transform="translate(-3.4332956,-60.91443)"
     style="display:inline">
    <g
       inkscape:groupmode="layer"
       id="layer10"
       inkscape:label="jine"
       style="display:inline">
      <path
         style="display:inline;fill:#93a7ac;stroke-width:0.40431"
         d="m 53.114327,156.96901 c -5.558952,-0.40313 -11.134371,-1.37404 -16.931931,-2.94864 l -4.69859,-1.27604 -0.109371,-8.65789 c -0.0604,-4.76182 0.0782,-9.67417 0.307181,-10.91631 1.326229,-7.18869 7.03992,-13.35267 14.064599,-15.17295 3.52071,-0.91229 19.638246,-0.90155 22.75926,0.0151 3.585387,1.05315 6.726055,2.95875 9.096986,5.51966 4.571662,4.93794 5.430409,8.13435 5.430409,20.21289 v 8.73848 l -3.282079,1.26574 c -1.805131,0.6961 -4.99939,1.62429 -7.098319,2.06261 -3.398099,0.70962 -12.344625,1.64502 -14.484545,1.51446 -0.444752,-0.0277 -2.718951,-0.18796 -5.053831,-0.35733 z M 86.5578,137.06496 c -0.268488,-5.22729 -1.188199,-8.62272 -3.309268,-12.21794 -2.380901,-4.03566 -7.31525,-8.17497 -11.321261,-9.49706 -1.63325,-0.53902 -1.792849,-1.16563 -0.577178,-2.26578 1.930019,-1.74666 4.405468,-7.53871 4.405468,-10.30797 v -1.17691 l 7.1765,0.009 c 8.079722,0.009 11.472482,0.5352 14.769561,2.29552 2.640168,1.40962 6.764578,5.43691 7.952348,7.76512 1.97648,3.87425 2.15046,5.01194 2.33953,15.30133 l 0.18005,9.80308 -1.83505,0.78665 c -4.1611,1.78364 -10.700999,3.24661 -17.080309,3.82086 l -2.46747,0.2223 -0.23296,-4.53608 z m -67.997384,3.31128 c -2.43818,-0.429 -6.59328,-1.35157 -9.2335412,-2.05021 l -4.8005,-1.27016 0.17807,-9.94535 c 0.18715,-10.44562 0.35535,-11.55499 2.33903,-15.44353 1.187801,-2.32823 5.3121812,-6.35552 7.9523612,-7.76513 3.36601,-1.79712 6.65451,-2.28768 15.38869,-2.29553 5.89884,-0.003 7.828891,0.1161 7.93238,0.49838 0.075,0.27796 0.337981,1.57565 0.583689,2.88379 0.535721,2.85118 1.640642,5.2383 3.51744,7.59905 0.76405,0.96109 1.390941,1.84737 1.39311,1.96945 0.0011,0.12198 -0.678338,0.46253 -1.512239,0.75644 -2.74524,0.96765 -6.040541,3.23213 -8.4465,5.80435 -4.14815,4.43473 -6.18828,9.95001 -6.20262,16.7682 l -0.008,3.33553 -2.32474,-0.0315 c -1.27865,-0.0198 -4.31963,-0.38378 -6.75776,-0.81262 z m 34.45216,-24.82272 c -2.19089,-0.60281 -5.2841,-2.47377 -6.833341,-4.13315 -7.525409,-8.06044 -4.169709,-21.202794 6.332881,-24.802354 0.88713,-0.30404 3.075649,-0.54958 4.86332,-0.54559 2.762821,0.009 3.642331,0.19071 5.863624,1.23011 3.199982,1.49748 6.01984,4.23897 7.536112,7.32674 1.019079,2.07535 1.13947,2.74757 1.13947,6.363604 0,3.3279 -0.15952,4.38841 -0.901181,5.99565 -3.216328,6.96895 -10.758604,10.55767 -18.000885,8.56499 z M 25.173626,99.458526 c -6.7109,-2.83156 -9.99364,-8.04095 -9.57914,-15.20107 0.61283,-10.58638 11.67385,-16.99669 21.477169,-12.44681 4.512162,2.09414 7.921292,7.01788 8.247271,11.91132 l 0.18083,2.7158 -1.79265,1.71059 c -2.020239,1.92782 -4.04423,5.44683 -4.75265,8.26334 -0.43721,1.73815 -0.639921,1.95999 -2.5577,2.79882 -3.187261,1.394154 -8.24221,1.505854 -11.22325,0.24797 z m 52.568305,0.31943 c -1.797709,-0.57262 -1.869771,-0.65871 -2.351119,-2.80954 -0.823129,-3.67824 -2.63942,-6.78611 -5.565627,-9.52343 l -2.664426,-2.49242 0.244015,-2.06181 c 0.508079,-4.2899 4.133826,-9.17554 8.220916,-11.07763 7.634521,-3.55297 16.331192,-0.55591 20.120711,6.93394 1.415161,2.79697 1.866371,7.5443 1.00838,10.60876 -1.203629,4.29902 -4.223049,7.80369 -8.39502,9.74425 -2.798099,1.301564 -7.681209,1.613294 -10.617999,0.67788 z"
         id="path1643" />
    </g>
    <g
       inkscape:groupmode="layer"
       id="layer8"
       inkscape:label="stezkino"
       style="display:inline">
      <path
         style="display:inline;fill:#93a7ac;stroke-width:0.0922105"
         d="m 17.978342,153.45412 c -1.055051,-0.58039 -1.712781,-1.21794 -2.342311,-2.27042 l -0.45197,-0.75559 -0.0316,-12.79008 c -0.0158,-7.0345 -0.0466,-15.02037 -0.064,-17.74631 -0.0158,-2.72601 -0.001,-4.95635 0.0355,-4.95635 0.0395,0 0.4329,0.229 0.87867,0.50891 2.154571,1.35263 5.518251,2.7983 7.738871,3.32608 0.85128,0.20217 6.99669,0.29812 8.33602,0.12986 2.11947,-0.26612 5.614909,-1.5931 7.840261,-2.97627 1.758738,-1.09315 3.53232,-2.63831 5.632908,-4.90753 l 0.768201,-0.82989 1.43631,-0.0277 1.436351,-0.0277 1.290968,1.22111 c 1.42988,1.35261 2.702492,2.39715 3.907142,3.20694 7.14751,4.80479 15.904279,5.89942 23.96762,2.99607 1.202809,-0.43305 3.10546,-1.32441 4.596688,-2.15337 l 0.843301,-0.4688 0.0707,1.36161 c 0.117271,2.25019 0.0865,31.58235 -0.0355,33.12267 -0.0884,1.12734 -0.142942,1.4102 -0.353381,1.84421 -0.35338,0.72864 -1.36966,1.70361 -2.337569,2.24285 l -0.783799,0.43669 -30.752201,-0.002 -30.752201,-0.002 -0.87599,-0.48186 z m 37.457449,-17.68684 c 3.108032,-1.62866 6.04307,-3.1719 6.522331,-3.42941 l 0.871371,-0.4683 -9.170321,-4.57736 c -5.04368,-2.51759 -9.309179,-4.62575 -9.47888,-4.68474 l -0.30838,-0.10738 0.064,1.45061 c 0.0355,0.79784 0.0928,4.9777 0.127921,9.28856 0.0494,6.0713 0.0904,7.88576 0.181239,8.0502 l 0.117269,0.21243 2.711281,-1.38656 c 1.491279,-0.76268 5.25426,-2.71919 8.36228,-4.34786 z m 43.042311,12.26261 c -1.496129,-0.76379 -4.78459,-2.46851 -7.307699,-3.7884 l -4.587452,-2.39979 0.0011,-9.88003 0.0011,-9.88002 2.788401,-1.40511 c 1.533599,-0.77278 4.85784,-2.46554 7.387151,-3.7616 2.52938,-1.29606 4.615437,-2.33987 4.635767,-2.31954 0.0197,0.0198 0.0636,7.86467 0.0959,17.43181 0.058,17.0972 0.0561,17.39484 -0.11726,17.39303 -0.0971,-0.001 -1.400696,-0.62671 -2.896785,-1.39035 z m -72.43136,-31.58631 c -2.91897,-0.30837 -5.97073,-1.61246 -8.446101,-3.60931 -0.93609,-0.75526 -2.58593,-2.48754 -3.243059,-3.4053 -1.458421,-2.03687 -2.609071,-4.64423 -2.975121,-6.74185 -0.33364,-1.91186 -0.25546,-5.90204 0.14569,-7.43338 1.17252,-4.47654 4.01217,-8.32293 7.951451,-10.77013 1.45356,-0.90306 3.49508,-1.73848 5.01834,-2.05361 1.71459,-0.35456 6.00666,-0.35141 7.73756,0.003 0.97182,0.20098 2.2682,0.6817 3.59174,1.33244 4.30929,2.11886 7.521671,5.76884 8.976451,10.19922 0.656309,1.9986 0.791299,2.90899 0.79158,5.33777 1.98e-4,1.65415 -0.0355,2.30559 -0.163071,2.96034 -0.7166,3.67894 -2.305751,6.69721 -4.904081,9.31433 -1.80149,1.8145 -4.228339,3.3058 -6.883909,4.23016 -1.50802,0.52491 -2.22359,0.61989 -4.87691,0.64754 -1.29326,0.0118 -2.51738,0.009 -2.72021,-0.0151 z m 3.24721,-3.41 c 0.87078,-0.29574 1.83983,-1.15084 2.2145,-1.95454 0.18438,-0.39582 0.22861,-0.63624 0.2294,-1.24484 0.001,-1.25777 -0.4962,-2.2579 -1.4262,-2.86772 -1.81935,-1.1929 -4.11586,-0.5531 -5.03216,1.40182 -0.21361,0.45596 -0.24717,0.64582 -0.24717,1.40327 0,0.75754 0.0316,0.94734 0.24717,1.40345 0.69902,1.49144 2.55904,2.35254 4.0143,1.85856 z m -8.70512,-5.36279 c 1.61355,-0.75988 2.3427,-2.00236 2.09289,-3.56617 -0.19624,-1.22913 -0.87382,-2.16119 -1.93606,-2.66362 -0.524,-0.24796 -0.69591,-0.28271 -1.38317,-0.28073 -1.408161,0.003 -2.466091,0.64611 -3.063051,1.8585 -0.28231,0.57307 -0.30363,0.68214 -0.30363,1.54088 0,0.76902 0.0355,1.00147 0.21203,1.38513 0.53501,1.16348 2.119501,2.13459 3.320601,2.03524 0.27284,-0.0236 0.74234,-0.15955 1.06043,-0.30915 z m 18.184199,-0.0635 c 0.85285,-0.41025 1.54078,-1.09241 1.802921,-1.78788 0.278361,-0.73841 0.225449,-1.95856 -0.117271,-2.70283 -1.19771,-2.60138 -4.825819,-2.65784 -6.086969,-0.0947 -0.28469,0.5782 -0.30245,0.67244 -0.30008,1.58461 0.002,0.86465 0.0276,1.01998 0.2444,1.43267 0.42686,0.81701 1.52132,1.64742 2.49926,1.8963 0.51566,0.13102 1.263171,0.003 1.957779,-0.32811 z m -9.959959,-6.32838 c 1.43943,-0.39326 1.91726,-2.39 0.81846,-3.42034 -0.58847,-0.55183 -1.37732,-0.67721 -2.06146,-0.32772 -1.33799,0.68353 -1.46852,2.62095 -0.23335,3.46712 0.53079,0.36365 0.90956,0.43575 1.47663,0.28073 z m -7.94493,-4.12573 c 1.19431,-0.58791 1.84433,-1.64916 1.84433,-3.01101 0,-1.38043 -0.70297,-2.50005 -1.95355,-3.1113 -0.5465,-0.2669 -0.69997,-0.30007 -1.40223,-0.30007 -0.726671,-2.4e-4 -0.84389,0.0277 -1.49345,0.34823 -0.796631,0.39367 -1.251601,0.85116 -1.625351,1.63416 -0.20887,0.43727 -0.24204,0.62785 -0.24204,1.38314 0,0.75382 0.0355,0.94828 0.24282,1.39427 0.62776,1.33881 1.789191,2.0436 3.275281,1.98761 0.62559,-0.0236 0.853089,-0.0781 1.35411,-0.32455 z m 17.53125,0.2219 c 0.995281,-0.29968 1.89914,-1.16028 2.23306,-2.12649 0.21242,-0.61484 0.19821,-1.70211 -0.0316,-2.27538 -0.53169,-1.33548 -1.882989,-2.28906 -3.24377,-2.28906 -0.9364,0 -2.1236,0.6158 -2.68724,1.39388 -0.49189,0.67901 -0.67162,1.31311 -0.62428,2.20233 0.0501,0.93716 0.26099,1.47308 0.81913,2.07849 0.91291,0.99041 2.29671,1.38841 3.533269,1.01623 z m -8.76963,-5.27391 c 0.48948,-0.17177 1.1808,-0.69599 1.46979,-1.11453 0.50622,-0.73313 0.66238,-1.21673 0.66337,-2.05443 6.61e-4,-0.68105 -0.0355,-0.85632 -0.26968,-1.33708 -0.35101,-0.71749 -1.18112,-1.54814 -1.86897,-1.87036 -0.44163,-0.20691 -0.66247,-0.25032 -1.2721,-0.25032 -0.62961,-6e-5 -0.8187,0.0395 -1.29097,0.27125 -0.70838,0.34746 -1.46126,1.09994 -1.77934,1.77875 -0.21361,0.45526 -0.24915,0.6515 -0.24836,1.36181 6.61e-4,0.71761 0.0355,0.90764 0.26534,1.40477 0.72863,1.5829 2.6684,2.3937 4.33092,1.81029 z m 35.895581,24.2143 c -2.71903,-0.30797 -7.057292,-2.25073 -9.464082,-4.23856 -3.47499,-2.86996 -5.59394,-5.82096 -7.08469,-9.86642 -0.908928,-2.46657 -0.89163,-2.33148 -0.89068,-6.96186 7.94e-4,-3.89245 0.008,-4.09644 0.213212,-5.02149 0.565208,-2.56734 2.4394,-6.28081 4.361519,-8.64184 3.50906,-4.31038 8.50012,-7.09854 13.910341,-7.77076 1.11814,-0.13891 4.0229,-0.11962 5.261909,0.0356 6.338049,0.79016 11.74649,4.11116 15.260341,9.37042 4.86024,7.27445 4.82459,16.62416 -0.0916,24.01634 -2.267101,3.4089 -5.425501,5.94702 -9.732579,7.82108 -2.637372,1.14758 -3.377541,1.27364 -7.69883,1.31147 -1.82577,0.0151 -3.64591,-0.009 -4.044741,-0.0529 z m 4.87466,-4.17953 c 1.640988,-0.43902 2.744848,-1.68955 3.012829,-3.41328 0.133839,-0.86142 0.01971,-1.74523 -0.32417,-2.49491 -0.274019,-0.59819 -1.039339,-1.4448 -1.60727,-1.77766 -1.357821,-0.7957 -3.236389,-0.77044 -4.532101,0.0608 -1.543658,0.99053 -2.29394,2.96785 -1.774759,4.67719 0.32298,1.06319 1.217451,2.23069 2.031759,2.65176 0.77551,0.40103 2.279571,0.54033 3.193632,0.29573 z m 11.429119,-6.53101 c 1.11175,-0.36721 1.938739,-1.09987 2.477151,-2.19404 0.28507,-0.57962 0.29415,-0.63429 0.29415,-1.80304 v -1.20535 l -0.347062,-0.70243 c -0.835168,-1.68942 -2.986378,-2.71457 -4.724818,-2.25163 -2.01273,0.53607 -3.270771,2.09013 -3.295171,4.07049 -0.02371,1.72589 0.826162,3.1207 2.349209,3.86695 1.09284,0.53543 2.086462,0.60247 3.246742,0.21912 z m -22.582921,0.0589 c 0.969881,-0.25269 1.7311,-0.80151 2.300301,-1.65911 0.989351,-1.49052 0.976551,-3.33872 -0.0355,-4.90056 -0.51412,-0.79461 -1.351381,-1.35102 -2.472251,-1.64296 -1.9318,-0.50322 -3.909229,0.44736 -4.790281,2.30255 -0.2906,0.61208 -0.341929,0.82229 -0.38063,1.55966 -0.0707,1.35663 0.260202,2.27135 1.165971,3.22117 0.561301,0.58855 1.086239,0.9376 1.697649,1.12866 0.537062,0.16781 1.85144,0.16308 2.513081,-0.0118 z m 11.088532,-8.39405 c 0.58733,-0.29258 1.183259,-0.95067 1.31995,-1.45747 0.20255,-0.75076 -0.117652,-1.88996 -0.68449,-2.4351 -0.401751,-0.38656 -1.189702,-0.68103 -1.823691,-0.68182 -0.65169,-6.9e-4 -1.135089,0.23731 -1.634921,0.80501 -1.100688,1.25041 -0.772938,3.09384 0.678812,3.81806 0.561229,0.27994 1.52898,0.25823 2.14434,-0.0487 z M 59.411161,92.69831 c 1.479431,-0.48572 2.577682,-1.80955 2.846372,-3.43111 0.284279,-1.71479 -0.749131,-3.65282 -2.369521,-4.44443 -0.52873,-0.25823 -0.608561,-0.27008 -1.79976,-0.27008 -1.21599,0 -1.26112,0.009 -1.84422,0.29494 -1.185899,0.58492 -2.175369,1.86255 -2.40181,3.10109 -0.17254,0.94398 0.13898,2.27193 0.736491,3.14054 1.08076,1.57092 3.00146,2.21047 4.832448,1.60937 z m 22.469052,0.002 c 0.612478,-0.20967 1.38771,-0.72844 1.761778,-1.17856 0.835441,-1.00531 1.188511,-2.53104 0.902282,-3.89908 -0.42259,-2.01994 -2.61865,-3.47184 -4.724971,-3.12399 -1.703491,0.28113 -3.006979,1.49376 -3.52134,3.27546 -0.202949,0.70244 -0.137401,1.4725 0.195839,2.30495 0.909712,2.27253 3.179731,3.3771 5.386372,2.62122 z M 70.095772,86.33992 c 2.47664,-0.51641 4.013361,-3.16074 3.176571,-5.466 -0.55459,-1.52792 -1.531741,-2.4227 -3.03194,-2.7764 -1.51484,-0.35733 -2.82385,0.0395 -4.01453,1.21333 -0.799201,0.7885 -1.136161,1.52051 -1.19783,2.60178 -0.077,1.34927 0.34272,2.40018 1.33495,3.34204 1.032949,0.98066 2.370148,1.36945 3.732779,1.08525 z"
         id="path993" />
    </g>
    <g
       inkscape:groupmode="layer"
       id="layer9"
       inkscape:label="deskovky"
       style="display:inline">
      <path
         style="display:inline;fill:#93a7ac;stroke-width:0.358849"
         d="m 50.411761,152.32018 -23.325169,-7.32644 -5.5954,-0.0118 c -5.15218,-0.0118 -5.72072,-0.0781 -7.176971,-0.84701 -0.869879,-0.4592 -2.06603,-1.52278 -2.6581,-2.36339 l -1.07658,-1.52851 V 106.4525 72.661884 l 0.85165,-1.36981 c 0.46836,-0.75343 1.50619,-1.80303 2.30629,-2.33256 l 1.454711,-0.96265 h 26.4604 26.460371 l 1.5285,1.07654 c 2.193229,1.54476 3.19836,3.64224 3.19836,6.67394 0,1.33892 0.14881,2.52628 0.330489,2.63867 0.18203,0.11206 5.793329,1.90794 12.47004,3.99009 6.676659,2.08219 12.621611,4.06637 13.210989,4.40943 0.589302,0.3431 1.558199,1.31599 2.153059,2.16237 2.09885,2.9863 2.2128,2.49448 -8.511528,36.737586 -6.868358,21.93083 -9.78149,30.75137 -10.442411,31.61788 -1.315498,1.72463 -2.94721,2.38267 -5.85592,2.36146 -2.169509,-0.0151 -5.192929,-0.87706 -25.782889,-7.34443 z m 28.250023,2.75059 c 0.830069,-0.80714 2.326367,-5.2793 9.92292,-29.65837 11.33847,-36.387526 10.177409,-32.295096 9.572948,-33.741746 -0.275209,-0.65906 -0.957459,-1.43175 -1.515798,-1.71699 -1.007081,-0.51457 -22.858431,-7.42367 -23.478681,-7.42367 -0.189132,0 -0.326541,11.80631 -0.33129,28.438706 -0.009,26.88163 -0.0443,28.51741 -0.67034,29.87424 -0.80178,1.73717 -1.937772,2.83044 -3.710991,3.57136 -1.117399,0.46687 -3.4618,0.55712 -14.707949,0.56629 -7.401671,0.009 -13.138142,0.14528 -12.840361,0.31231 0.29614,0.16542 8.20865,2.67698 17.58361,5.58095 9.374891,2.90392 17.20678,5.33286 17.404159,5.39771 0.687581,0.22544 1.800831,-0.25666 2.771712,-1.20044 z m 10.254519,-48.38301 c -0.455821,-0.11995 -0.63728,-0.63123 -0.717711,-2.02173 l -0.107929,-1.86107 -2.671051,-0.85796 -2.671058,-0.85784 -1.124583,1.33954 c -0.797419,0.94984 -1.355547,1.3038 -1.918478,1.21674 -0.43666,-0.0675 -0.824701,-0.27164 -0.862372,-0.45383 -0.0395,-0.18201 1.946881,-3.04718 4.41008,-6.366956 4.075782,-5.49301 4.559221,-6.01735 5.375,-5.82995 0.49299,0.11324 0.925021,0.23452 0.95994,0.26967 0.259811,0.2594 0.515882,15.658926 0.259811,15.625836 -0.1773,-0.0236 -0.59658,-0.11408 -0.93208,-0.20216 z m -0.903761,-9.519826 -0.200181,-3.12509 -1.784009,2.46859 c -0.98117,1.3577 -1.764929,2.60255 -1.741691,2.76622 0.0573,0.4036 3.384042,1.522936 3.68604,1.240346 0.132202,-0.12365 0.150482,-1.631276 0.0399,-3.350066 z m -21.04241,43.626636 c 2.40316,-1.14042 2.281211,0.69942 2.281211,-34.4177 0,-29.339136 -0.0474,-31.890746 -0.612212,-32.846666 -1.303919,-2.2074 -0.51227,-2.14871 -27.53052,-2.04207 l -24.594539,0.0968 -1.17298,1.17308 -1.17304,1.17304 -0.0951,31.954246 c -0.0852,28.56635 -0.0356,32.08139 0.474019,33.15418 1.140021,2.40243 0.2357,2.32433 27.019092,2.3334 21.636209,0.009 24.2976,-0.0533 25.40436,-0.57852 z m -43.98992,-3.84536 c -1.10472,-2.90574 -4.6854,-13.27116 -4.6854,-13.5635 0,-0.19425 0.43163,-0.30245 0.95913,-0.24006 0.77215,0.0912 1.0579,0.41102 1.46534,1.63868 l 0.50614,1.52509 h 2.94614 2.94613 l 0.55382,-1.52509 c 0.43929,-1.20996 0.75122,-1.54859 1.50951,-1.63868 0.52568,-0.0624 0.95583,-0.003 0.95583,0.13154 0,0.13455 -0.9907,3.01174 -2.2016,6.39345 -1.21085,3.38165 -2.35707,6.59243 -2.54707,7.13523 -0.45189,1.29096 -1.93799,1.37936 -2.40797,0.14328 z m 2.28174,-5.38937 c 1.29121,-3.43147 1.28379,-3.45603 -1.04614,-3.45603 -1.41292,0 -1.97367,0.13707 -1.97367,0.4821 0,0.39799 0.81751,3.02125 1.62717,5.22113 0.25388,0.69003 0.33917,0.55255 1.39264,-2.2472 z m 12.96995,-15.9819 c -0.11055,-0.17846 0.28388,-1.40479 0.875959,-2.72474 0.592201,-1.31999 1.076722,-2.5615 1.076722,-2.75899 0,-0.22269 -0.655751,-0.26889 -1.7262,-0.12164 -2.234721,0.30718 -4.547051,-0.5638 -5.285141,-1.99099 -0.73613,-1.42355 -0.65665,-4.05488 0.17018,-5.63953 1.42221,-2.724946 7.212821,-8.687776 8.43695,-8.687776 0.8059,0 6.53492,5.91161 7.702921,7.948436 1.809639,3.15568 1.36158,6.86808 -0.938721,7.77799 -1.799881,0.71201 -2.796971,0.82473 -4.301749,0.48671 l -1.480262,-0.33285 1.22351,2.85847 c 0.67292,1.5722 1.132941,3.00503 1.02226,3.18409 -0.26217,0.42437 -6.51433,0.42504 -6.77663,8e-4 z M 53.103163,89.547254 c 0,-0.088 1.15411,-3.40667 2.564649,-7.37518 2.477651,-6.97067 2.595779,-7.21175 3.482081,-7.10697 0.850209,0.10068 1.106109,0.64241 3.4921,7.39461 l 2.574708,7.28618 -1.094938,-0.10936 c -0.935101,-0.0931 -1.16885,-0.33207 -1.601071,-1.63432 l -0.506079,-1.52512 h -2.9737 -2.973641 l -0.452139,1.61486 c -0.401481,1.4337 -0.567671,1.61482 -1.482082,1.61482 -0.566388,0 -1.029859,-0.0718 -1.029888,-0.15955 z m 8.00058,-5.13331 c 0.0813,-0.14815 -0.34353,-1.62616 -0.944711,-3.28468 l -1.09292,-3.01556 -1.00784,2.99934 c -0.55427,1.64963 -1.007779,3.12767 -1.007779,3.28467 0,0.36247 3.854029,0.37784 4.05325,0.0151 z"
         id="path1009" />
    </g>
    <g
       inkscape:groupmode="layer"
       id="layer7"
       inkscape:label="hra"
       style="display:inline">
      <path
         style="display:inline;fill:#93a7ac;stroke-width:0.102961"
         d="m 68.265829,152.63966 c -2.059572,-0.47322 -4.17449,-1.67543 -5.098841,-2.89846 -0.6438,-0.8518 -2.60386,-4.50531 -5.23259,-9.75344 -3.72748,-7.44179 -5.32714,-10.9681 -5.62114,-12.39151 -0.375091,-1.815 -0.44233,-4.68817 -0.153191,-6.53519 0.16899,-1.07946 1.32623,-4.22259 3.494691,-9.4907 2.493299,-6.05723 2.793971,-6.60528 4.63168,-8.44288 1.210339,-1.21017 2.514999,-2.17812 3.752749,-2.78417 1.369391,-0.670499 3.33285,-1.169069 12.56674,-3.191179 7.996581,-1.75109 9.961332,-2.16623 10.656091,-2.25163 1.838449,-0.22585 4.300331,0.49544 6.13645,1.79777 1.52179,1.07942 2.345621,2.25822 4.961011,7.098469 4.411711,8.16483 7.531691,14.21098 7.836781,15.18686 0.42837,1.37033 0.56708,2.43608 0.56952,4.37586 0.003,2.86129 -0.18478,3.57852 -1.91169,7.28796 -1.62647,3.49328 -4.82471,9.82188 -5.448761,10.78178 -1.172551,1.80367 -3.93995,4.27655 -5.863021,5.23908 -1.539211,0.77042 -4.44827,1.59579 -12.86937,3.65141 -9.638361,2.35286 -11.085891,2.62348 -12.40686,2.31997 z m 7.314409,-4.2638 c 1.921809,-0.49387 3.74972,-1.88177 3.92838,-2.98282 0.0498,-0.30639 0.008,-0.40409 -0.305599,-0.71778 -0.32575,-0.32574 -0.419952,-0.36286 -0.91394,-0.36168 -1.641941,0.003 -3.881641,1.09548 -4.704561,2.29149 -0.395949,0.57553 -0.484191,0.92657 -0.327721,1.30412 0.24638,0.59487 1.13221,0.7727 2.323491,0.46658 z m -6.25951,-2.90545 c 0.570849,-1.17499 1.486879,-3.13252 2.03559,-4.3501 1.403139,-3.11327 2.844229,-6.06337 3.25052,-6.65408 0.790631,-1.14949 2.719819,-2.9365 4.223489,-3.91223 1.774531,-1.15148 2.284351,-1.31659 9.667462,-3.13199 2.519979,-0.61959 6.58573,-1.61988 9.035,-2.22295 2.449319,-0.60305 4.530201,-1.15266 4.624291,-1.22144 0.19821,-0.14496 0.12597,-0.43519 -0.13346,-0.53461 -0.20137,-0.0774 -0.56632,0.002 -7.451151,1.61769 -12.597641,2.95657 -13.200092,3.08659 -14.288432,3.08496 -1.294468,-0.002 -2.099828,-0.197 -3.372839,-0.81621 -1.330381,-0.64724 -2.296819,-1.51938 -3.068691,-2.76923 -0.690139,-1.11753 -1.778489,-3.15685 -4.239839,-7.94475 -2.8946,-5.63075 -5.19566,-9.95148 -5.558681,-10.43776 -0.158719,-0.21241 -0.462939,-0.16191 -0.462939,0.0767 0,0.24756 1.570199,3.5091 5.012851,10.41261 3.286519,6.5904 4.351769,8.89796 4.776729,10.34761 0.188741,0.64442 0.234141,1.10982 0.274421,2.81244 0.0845,3.59752 -0.0905,4.21332 -3.159641,11.11732 -1.709301,3.84489 -2.444689,5.65215 -2.538381,6.23816 -0.06,0.37588 -0.045,0.42437 0.13384,0.42437 0.16071,0 0.413721,-0.43613 1.239771,-2.13644 z m -6.416119,-3.14737 c 0.771078,-1.01096 0.900599,-3.29573 0.268488,-4.73573 -0.289808,-0.66027 -0.44087,-0.80482 -0.93509,-0.89517 -0.61754,-0.11258 -0.78101,-2.6e-4 -1.15188,0.79194 -0.380619,0.81355 -0.468309,1.69975 -0.29021,2.93212 0.21954,1.51768 0.69556,2.24699 1.46708,2.24802 0.31074,5.3e-4 0.42891,-0.0624 0.64149,-0.34114 z m 2.71413,-5.98806 c 0.495128,-0.41664 0.76599,-1.19096 0.823558,-2.35435 0.0565,-1.13652 -0.0754,-1.91436 -0.450509,-2.65721 -0.477451,-0.94611 -1.0776,-1.15254 -1.634371,-0.56213 -0.51522,0.54626 -0.722439,1.34226 -0.713348,2.73987 0.008,1.29516 0.168198,1.94578 0.627668,2.55561 0.433621,0.57547 0.883301,0.66839 1.347002,0.27836 z m 32.090699,-3.60945 c 1.861999,-0.48496 3.761492,-1.99092 3.761492,-2.98218 0,-0.33088 -0.24007,-0.63182 -0.6882,-0.8626 -0.35339,-0.18202 -1.275703,-0.13623 -1.993242,0.0995 -2.349299,0.77128 -3.869079,2.29693 -3.429381,3.44276 0.168992,0.44033 1.273842,0.58254 2.349331,0.30245 z m -29.143611,-2.57134 c 0.153212,-0.14176 0.38023,-0.47792 0.504092,-0.74645 0.19939,-0.43144 0.225449,-0.66236 0.225449,-1.98126 0,-1.42688 -0.01191,-1.51896 -0.288229,-2.08031 -0.330092,-0.67256 -0.79343,-1.11154 -1.17279,-1.11154 -0.355761,0 -0.90565,0.6188 -1.136081,1.27868 -0.283099,0.81113 -0.24203,2.78754 0.0758,3.612 0.449409,1.16702 1.186379,1.59013 1.791981,1.02888 z m -12.001281,-0.62002 c 0.517232,-0.43528 0.684491,-1.11412 0.684091,-2.77696 -2.64e-4,-1.36649 -0.01569,-1.46888 -0.27796,-1.96863 -0.322588,-0.61262 -0.818669,-1.0687 -1.16182,-1.0687 -0.252299,0 -0.662099,0.41264 -0.936678,0.94354 -0.2369,0.45844 -0.356931,1.8137 -0.246372,2.78875 0.120822,1.06841 0.504952,1.87359 1.025781,2.15122 0.465209,0.24795 0.54315,0.24202 0.91307,-0.0695 z m 25.343713,-4.79178 c 0.51879,-0.13421 0.962668,-0.43373 1.300808,-0.87706 0.26493,-0.34706 0.294942,-0.4669 0.294942,-1.16712 0,-0.57006 -0.0548,-0.89109 -0.20374,-1.19204 -0.306401,-0.61959 -1.011772,-1.26394 -1.783292,-1.62948 -0.608208,-0.28783 -0.794538,-0.32693 -1.57317,-0.32693 -0.802338,0 -0.92874,0.0277 -1.379958,0.30877 -0.27323,0.16978 -0.63731,0.48329 -0.809151,0.69651 -0.677741,0.84096 -0.41596,2.222 0.610229,3.21931 1.04684,1.0174 2.169131,1.32395 3.54321,0.96776 z m -22.455061,-1.35383 c 0.79288,-0.81095 1.01454,-3.27583 0.419309,-4.66235 -0.438779,-1.02216 -1.187039,-1.27467 -1.81235,-0.61161 -1.011539,1.07255 -0.914649,4.06887 0.168201,5.20734 0.474839,0.49914 0.785259,0.51603 1.224639,0.0667 z m 38.996139,-3.04642 c 0.835512,-0.42983 1.393301,-1.48761 1.216271,-2.30642 -0.19585,-0.90521 -0.904939,-1.78811 -1.805141,-2.2474 -0.622189,-0.31745 -1.792838,-0.53784 -2.411008,-0.45397 -1.267751,0.17174 -2.01056,0.97701 -2.00851,2.17694 0.003,1.76241 1.751428,3.17913 3.80854,3.08587 0.531849,-0.0236 0.90533,-0.10354 1.199848,-0.25508 z M 62.315588,117.3105 c 0.60153,-0.65791 0.847159,-1.95422 0.66847,-3.52766 -0.133461,-1.17622 -0.44354,-1.81398 -1.01364,-2.08581 -0.34272,-0.16341 -0.37904,-0.16189 -0.737442,0.0315 -0.227038,0.12196 -0.480247,0.38732 -0.636129,0.6661 -0.24361,0.43557 -0.259019,0.55269 -0.259019,1.95626 0,1.72881 0.10782,2.20207 0.635309,2.7858 0.301652,0.33403 0.434711,0.40602 0.748731,0.40602 0.264539,0 0.446919,-0.0711 0.59372,-0.23178 z m 11.853651,-7.71541 c 0.76939,-0.23691 1.490199,-1.20224 1.491829,-1.99796 0.0021,-0.86897 -0.772469,-1.96784 -1.75025,-2.48413 -1.709741,-0.9027 -3.544009,-0.59318 -4.192101,0.70726 -0.31034,0.62303 -0.328509,0.87916 -0.112138,1.60713 0.183999,0.61923 0.96729,1.53748 1.655998,1.94111 0.732282,0.42916 1.942351,0.52347 2.906622,0.22664 z m 16.037139,-4.28229 c 0.55743,-0.28703 1.035431,-0.84577 1.178909,-1.37864 0.447951,-1.66347 -1.39619,-3.58661 -3.43934,-3.58661 -1.20338,0 -2.231789,0.58002 -2.582478,1.45647 -0.512342,1.28052 0.691118,3.07921 2.44303,3.65129 0.626499,0.20452 1.868659,0.13103 2.399879,-0.14261 z m -55.403012,29.68037 c -0.0565,-0.0198 -0.913778,-0.27518 -1.904788,-0.56749 -5.499641,-1.62172 -21.682331,-7.01749 -22.882051,-7.62957 -0.5218198,-0.26613 -1.8131598,-1.50076 -2.4562298,-2.34815 -0.67111,-0.88442 -1.2968,-2.1736 -1.48416,-3.05801 -0.27282,-1.28796 -0.18913,-2.61147 0.57398,-9.04736 1.31013,-11.05244 1.93247,-13.520509 5.1926698,-20.592289 1.61319,-3.49927 3.48701,-7.40601 5.11897,-10.67257 l 1.52547,-3.05346 0.86845,-0.8221 c 1.301,-1.23145 2.05045,-1.68079 3.37996,-2.02636 2.24705,-0.58409 3.26971,-0.366 13.354739,2.84594 7.776541,2.4768 13.573983,4.41424 14.499201,4.84544 1.06004,0.49409 2.522091,1.99386 3.28974,3.37461 0.577371,1.03863 0.772231,1.86089 0.76859,3.2433 -0.004,1.63092 -0.575749,5.28427 -1.940909,12.406849 -1.557732,8.1277 -2.691191,11.4097 -8.71175,25.2256 -1.87932,4.31267 -2.216761,4.93459 -3.218392,5.93161 -0.916818,0.91262 -2.00551,1.54102 -3.189438,1.84098 -0.540689,0.13656 -2.482792,0.20886 -2.784052,0.10298 z m -0.590759,-4.0546 c 0.69696,-0.35733 1.158179,-1.06915 1.15605,-1.78424 -0.0011,-0.53083 -0.440518,-1.3412 -1.06425,-1.96497 -1.622211,-1.62219 -3.50935,-1.85333 -4.819619,-0.59039 -0.48671,0.46915 -0.49872,0.49548 -0.497731,1.09169 0.001,0.79876 0.32219,1.47815 1.02543,2.17024 1.24422,1.22463 3.023341,1.6812 4.20012,1.07767 z m 6.793061,-2.0192 c 0.0703,-0.28311 0.43089,-2.2986 0.801611,-4.47879 1.541018,-9.06352 1.926338,-10.80298 3.508549,-15.83761 0.979279,-3.116 1.390629,-4.14588 5.209911,-13.043099 2.400869,-5.59287 2.443189,-5.71436 1.99154,-5.71436 -0.33759,0 -0.719992,0.78194 -3.575363,7.31024 -2.133949,4.878869 -3.343669,7.459419 -3.909618,8.339869 -0.578921,0.90061 -1.166251,1.41128 -2.191329,1.90519 -2.011241,0.9691 -3.247951,0.89284 -7.522821,-0.46382 -0.56627,-0.17965 -3.879051,-1.24663 -7.361751,-2.37086 -10.98705,-3.54663 -13.06471,-4.18151 -13.33928,-4.07613 -0.16626,0.0636 -0.16575,0.0802 0.003,0.2689 0.374299,0.41363 3.029909,1.34833 14.20892,5.00115 4.586919,1.49882 8.710559,2.90295 9.163589,3.12031 1.95317,0.93703 3.386561,2.57247 4.02508,4.59238 0.471451,1.49127 0.42336,1.96137 -1.20137,11.74175 -0.357729,2.153 -0.61832,3.99788 -0.579278,4.09963 0.0498,0.12919 0.156749,0.1753 0.354967,0.15233 0.246772,-0.0277 0.300472,-0.0998 0.411311,-0.54744 z m -24.903121,-3.71924 c 0.78423,-0.3909 1.09585,-0.90043 1.08964,-1.78207 -0.009,-1.1846 -0.73775,-2.14695 -2.16036,-2.85004 -1.289,-0.63707 -2.65937,-0.6013 -3.49964,0.0912 -0.96379,0.79447 -0.89272,2.16788 0.17176,3.3229 0.92339,1.00176 1.92801,1.47813 3.13027,1.48425 0.58226,0.003 0.83369,-0.0497 1.26821,-0.26612 z m 10.29538,-4.53332 c 0.45675,-0.2219 0.58796,-0.34904 0.759041,-0.73591 0.861899,-1.94841 -1.701051,-4.49687 -4.224191,-4.2003 -0.68423,0.0806 -1.03094,0.25427 -1.44255,0.723 -0.74559,0.84914 -0.51775,2.22226 0.54504,3.28506 1.19414,1.19415 3.01693,1.58197 4.36266,0.92815 z m 9.76262,-4.26633 c 0.244411,-0.11811 0.606361,-0.40456 0.80473,-0.63625 0.319032,-0.37273 0.360481,-0.48746 0.35969,-0.99483 -0.0021,-1.53648 -1.50718,-2.99964 -3.421488,-3.32757 -1.698591,-0.29098 -3.010052,0.66597 -2.819352,2.05712 0.16861,1.23097 1.40445,2.49936 2.895599,2.97218 0.664472,0.21045 1.666862,0.17845 2.180903,-0.0707 z m 11.002221,-2.80034 c 0.851109,-1.59782 1.757749,-4.81067 1.66954,-5.91643 -0.0236,-0.29731 -0.0731,-0.57025 -0.109361,-0.60666 -0.363238,-0.36326 -1.856258,3.18209 -2.27661,5.40559 -0.394049,2.08333 -0.0684,2.59098 0.716489,1.1175 z M 18.555807,110.5779 c 0.60395,-0.37629 0.85548,-0.84247 0.85254,-1.57996 -0.003,-0.70037 -0.25349,-1.27817 -0.82153,-1.89457 -0.85326,-0.9257 -1.88271,-1.4098 -3.0062,-1.41372 -1.15277,-0.003 -1.98493,0.46955 -2.30702,1.31292 -0.84882,2.22256 3.13061,4.91612 5.28221,3.57533 z m 21.7977,-6.19991 c 1.251299,-0.55353 1.7238,-1.79529 1.133711,-2.97946 -0.565262,-1.13425 -1.675699,-1.757709 -3.292251,-1.848409 -1.183769,-0.0663 -1.937408,0.13187 -2.52817,0.665859 -1.646989,1.48794 -0.658281,3.72453 1.905071,4.3094 0.803738,0.18362 2.201231,0.10936 2.781639,-0.1473 z m -6.4409,-10.089789 c 1.112851,-0.42282 1.66193,-1.0588 1.662602,-1.92566 0.0021,-2.94412 -5.470521,-4.20062 -6.702861,-1.53892 -0.343891,0.74287 -0.218741,1.6835 0.309959,2.32394 0.35456,0.42963 1.34605,0.9863 2.223501,1.24824 0.759979,0.22663 1.737211,0.1848 2.506989,-0.10738 z m -5.90472,-10.09231 c 0.9097,-0.40686 1.48689,-1.16998 1.4897,-1.96957 0.003,-0.77787 -0.69884,-1.77808 -1.55931,-2.22303 -2.132929,-1.10298 -4.51038,-0.68635 -5.17595,0.90699 -0.2073,0.49647 -0.20374,1.24375 0.009,1.69 0.32098,0.67616 1.55112,1.5266 2.58113,1.7842 0.67937,0.17017 2.076831,0.0707 2.65657,-0.18873 z"
         id="path977" />
    </g>
    <g
       inkscape:groupmode="layer"
       id="layer6"
       inkscape:label="diskuze"
       style="display:inline">
      <path
         id="path911-8"
         d="m 84.268729,150.55269 c -2.758487,-0.41388 -4.5485,-0.95974 -6.70279,-2.04385 -1.36706,-0.68796 -2.421358,-0.79978 -8.060428,-0.85483 -4.825061,-0.0469 -7.084891,-0.2373 -8.81811,-0.74123 -5.53665,-1.6104 -10.743721,-4.97664 -13.618702,-8.8041 -0.93658,-1.24687 -1.814809,-2.40502 -1.951588,-2.57358 -0.136562,-0.16858 -1.29622,0.32416 -2.576531,1.09522 -3.87903,2.33583 -7.86714,3.4047 -13.53381,3.6273 -4.61521,0.18163 -4.98079,0.14059 -5.99616,-0.66556 -0.80936,-0.64266 -1.08127,-1.20399 -1.08127,-2.23206 0,-1.95816 0.49508,-2.65359 2.84167,-3.99122 1.94421,-1.10832 4.97766,-3.83706 4.60209,-4.13987 -0.0931,-0.075 -1.29618,-0.81099 -2.67296,-1.6349 -3.42713,-2.05109 -7.149321,-5.63 -9.480981,-9.11615 -5.4642,-8.16964 -5.46233,-18.44351 0.003,-26.617626 9.511151,-14.22042 31.403491,-19.18206 48.707791,-11.03907 7.67029,3.60943 14.17346,10.58048 16.167032,17.33005 0.426238,1.44314 0.643397,1.65536 1.905939,1.862336 3.331465,0.54626 8.986915,4.89405 11.760955,9.04161 3.40953,5.09762 4.623974,11.46038 3.27409,17.15326 -0.91282,3.84971 -3.43369,8.40991 -6.41171,11.59876 -1.56722,1.67813 -2.6188,3.11812 -2.46217,3.37153 0.1505,0.24324 1.32804,0.94115 2.61705,1.55074 3.19847,1.51269 3.85268,2.17785 3.85268,3.91733 0,2.54849 -2.02924,3.65234 -7.47064,4.06381 -1.40568,0.10617 -3.608995,0.0356 -4.896336,-0.15787 z m -2.404398,-8.8165 c -0.87675,-2.09834 -0.383001,-3.1352 2.641549,-5.54857 7.782896,-6.2098 10.316056,-14.33649 6.743276,-21.63305 -1.09533,-2.23689 -4.60557,-5.88671 -6.706636,-6.97319 l -1.257559,-0.65036 -0.22071,1.08681 c -1.254242,6.17069 -3.151111,9.99388 -7.006601,14.12228 -1.516671,1.62406 -3.811471,3.6685 -5.09951,4.54323 -4.74481,3.22214 -11.62366,5.82358 -17.109919,6.47063 l -2.092391,0.24678 2.047721,2.07351 c 4.691129,4.75013 12.48161,6.72303 20.62349,5.22281 l 2.45627,-0.45252 2.295078,1.43549 c 2.961262,1.8524 3.440801,1.86235 2.686093,0.056 z M 38.80204,131.05559 c 0.992109,-0.57787 2.664329,-1.77219 3.71604,-2.65403 1.747909,-1.46568 2.085541,-1.59579 3.931901,-1.51555 3.030829,0.13186 9.104138,-0.64548 12.019669,-1.53821 9.503331,-2.90982 16.49022,-9.87515 17.793161,-17.73826 C 77.55647,99.802674 72.423579,91.521174 63.607642,87.191444 57.79274,84.335604 55.904419,83.945894 47.87998,83.945574 l -6.88086,-3.2e-4 -4.01244,1.4133 c -2.20685,0.77724 -5.00677,2.01471 -6.22206,2.74983 -9.85164,5.95951 -13.445441,15.682216 -9.06939,24.536546 2.4419,4.9409 6.4941,8.62191 12.50871,11.36281 2.35482,1.07314 3.03458,1.58359 3.45254,2.59264 0.47346,1.14302 0.42635,1.44825 -0.52161,3.38118 -1.18844,2.42313 -0.93231,2.58818 1.66717,1.07403 z m -6.34989,-21.5622 c -1.31296,-0.73843 -2.2658,-2.48101 -2.2658,-4.14389 0,-0.88417 0.38261,-1.62087 1.33686,-2.57527 1.11529,-1.1153 1.62029,-1.33542 3.04725,-1.32815 2.6523,0.0118 4.26613,1.70871 4.26613,4.48095 0,2.9975 -3.71043,5.07013 -6.38444,3.56636 z m 14.00766,0.20887 c -1.46237,-0.59089 -2.511731,-2.32853 -2.511731,-4.15913 0,-1.35857 0.23492,-1.92114 1.209812,-2.89596 0.994328,-0.99429 1.52658,-1.20978 2.988228,-1.20978 1.498312,0 1.98905,0.21045 3.115302,1.33684 0.95445,0.9544 1.336839,1.69114 1.336839,2.57527 0,3.33072 -3.14625,5.56172 -6.13845,4.35276 z m 12.68553,-0.79482 c -3.142929,-2.75953 -1.430379,-7.47005 2.71579,-7.47005 3.285201,0 5.243681,2.9609 3.971861,6.00481 -1.14449,2.73911 -4.419521,3.45665 -6.687651,1.46524 z"
         style="display:inline;fill:#93a7ac;stroke-width:0.393192" />
    </g>
    <g
       inkscape:groupmode="layer"
       id="layer5"
       inkscape:label="seminar"
       style="display:inline">
      <path
         style="display:inline;fill:#93a7ac;stroke-width:0.382601"
         d="m 24.170544,159.41159 c -1.59464,-1.34183 -1.60965,-3.34635 -0.0458,-6.1175 2.84194,-5.03559 6.13802,-14.61258 6.13802,-17.83442 0,-0.77491 -0.81692,-2.27186 -2.63532,-4.82909 -5.13276,-7.21812 -8.1061,-13.20969 -9.89458,-19.93843 -1.34572,-5.06268 -1.41857,-13.563269 -0.15635,-18.201809 2.90203,-10.66218 10.04805,-18.89868 19.77647,-22.79413 5.0624,-2.027031 7.64213,-2.432911 15.4829,-2.436081 6.17866,-0.003 7.50915,0.10968 10.46998,0.88452 12.81986,3.353761 22.2062,11.911811 25.86289,23.580481 1.20821,3.85546 1.17098,8.938199 -0.0948,12.887779 l -0.94193,2.94014 1.13441,1.07719 c 2.0281,1.92569 4.86033,5.71983 5.83898,7.82219 1.15483,2.4807 1.21911,4.45486 0.20966,6.4338 -0.86288,1.69134 -1.92563,2.62135 -4.13303,3.61677 -1.42276,0.64158 -1.56554,0.84247 -1.75712,2.47289 -0.6238,5.30871 -0.90296,6.61077 -1.62836,7.59436 -0.56564,0.76689 -0.84949,1.8978 -1.00909,4.02026 -0.27402,3.64283 -1.6404,6.42483 -3.88503,7.9097 -1.47078,0.97298 -1.67373,0.99907 -8.16948,1.05084 -3.66364,0.0277 -6.79922,0.20136 -6.96794,0.3826 -0.16899,0.18122 -0.87259,2.19072 -1.5642,4.46552 -0.97817,3.21712 -1.50398,4.34336 -2.36686,5.06946 l -1.10943,0.93349 h -18.68872 -18.68869 z m 38.6822,-7.618 c 0.93321,-2.91455 1.76975,-4.84083 2.29059,-5.27467 0.7265,-0.60518 1.60336,-0.67712 7.65117,-0.62781 7.57793,0.0615 8.12068,-0.0781 9.39471,-2.42273 0.49343,-0.90802 0.67474,-2.11851 0.6775,-4.52322 0.004,-3.16953 0.0434,-3.31787 1.15159,-4.28009 1.00929,-0.87647 1.09008,-1.09134 0.66953,-1.78093 -0.65887,-1.08028 -0.60094,-1.7065 0.25546,-2.76081 0.61639,-0.75895 0.6999,-1.30743 0.52277,-3.43363 l -0.21084,-2.5304 1.45854,-0.27361 c 2.47979,-0.4652 4.65125,-1.69248 5.15764,-2.91506 0.4068,-0.98205 0.34232,-1.37042 -0.52111,-3.13503 -0.54196,-1.10773 -2.37031,-3.55183 -4.06299,-5.43131 -3.54554,-3.93674 -3.59036,-4.12173 -2.11626,-8.73742 1.20525,-3.773949 1.25109,-7.255179 0.14294,-10.849289 -3.3781,-10.9552 -12.35882,-18.76908 -24.43907,-21.2638 -5.37239,-1.10951 -14.10143,-0.81905 -18.92839,0.62974 -9.74047,2.92362 -16.65857,9.65418 -19.8507,19.31249 -2.23373,6.75857 -2.12669,13.550559 0.33009,20.955239 1.9321,5.82278 3.97229,9.5954 9.26187,17.12645 2.31918,3.30198 2.40095,3.49908 2.40095,5.78564 0,4.38704 -2.85102,13.28037 -6.15765,19.20802 l -1.12269,2.01254 17.28712,-0.0995 17.28713,-0.0995 z m -2.51699,-39.78512 c -0.40341,-0.61567 -0.92487,-0.91927 -1.47875,-0.86087 -0.71849,0.0758 -0.83845,-0.0755 -0.74854,-0.94237 0.0746,-0.71779 -0.1299,-1.15928 -0.66957,-1.4482 -0.76891,-0.41153 -1.09007,-1.53651 -0.43863,-1.53651 0.47713,0 0.81033,-1.48495 0.39129,-1.74393 -0.63518,-0.39247 -0.35733,-1.31691 0.3959,-1.31691 0.87347,0 1.38767,-0.68277 1.231,-1.63463 -0.0967,-0.58875 0.0936,-0.64538 1.44432,-0.42935 1.28414,0.2053 1.55591,0.13974 1.55591,-0.37392 0,-0.3676 0.3135,-0.62282 0.7652,-0.62282 0.45182,0 0.7652,0.25506 0.7652,0.62282 0,0.51399 0.27165,0.57934 1.55591,0.37392 1.35078,-0.21599 1.54122,-0.15956 1.44432,0.42935 -0.15674,0.95186 0.35773,1.63463 1.23096,1.63463 0.75315,0 1.03112,0.92436 0.39594,1.31691 -0.419,0.25901 -0.0857,1.74393 0.39129,1.74393 0.65141,0 0.33008,1.12498 -0.43863,1.53651 -0.5399,0.28904 -0.74404,0.73041 -0.66957,1.4482 0.0884,0.85357 -0.0458,1.03258 -0.77322,1.03258 -0.48411,0 -1.18787,0.40633 -1.5638,0.90297 -0.61078,0.80684 -0.77164,0.84795 -1.51101,0.38615 -0.66539,-0.41553 -0.97628,-0.42378 -1.58742,-0.0423 -0.99247,0.61983 -0.96475,0.62765 -1.68818,-0.4764 z m 3.75995,-3.85877 c 0.87966,-0.87967 0.73523,-1.97155 -0.35497,-2.68607 -0.88609,-0.58057 -1.02697,-0.58057 -1.91303,0 -0.52609,0.3447 -0.95646,0.95481 -0.95646,1.35577 0,0.92906 0.99282,1.93152 1.91299,1.93152 0.3909,0 0.98106,-0.27047 1.31174,-0.60122 z m -26.65913,4.1635 c -0.46086,-0.12044 -0.66957,-0.5547 -0.66957,-1.39319 0,-1.02742 -0.25941,-1.37476 -1.65549,-2.21809 -1.47598,-0.89155 -1.7767,-0.94845 -2.77382,-0.52495 -1.01099,0.42943 -1.21801,0.38261 -2.15571,-0.4894 l -1.03733,-0.96444 0.75798,-1.06452 0.75801,-1.06452 -0.84906,-1.74762 c -0.74483,-1.53304 -0.99907,-1.74759 -2.07098,-1.74759 -1.27474,0 -1.6864,-0.50398 -1.6864,-2.064729 0,-0.59432 0.39444,-1.0425 1.29638,-1.47256 1.12186,-0.53498 1.31932,-0.84066 1.46663,-2.27081 0.15004,-1.45542 0.0355,-1.76674 -0.94209,-2.60915 -0.9867,-0.84842 -1.06697,-1.07534 -0.71083,-2.00862 0.35062,-0.9186 0.60675,-1.05219 2.0187,-1.05219 1.29196,0 1.86455,-0.23965 2.8466,-1.19146 1.20419,-1.16718 1.21864,-1.22155 0.70866,-2.66706 -0.50875,-1.44193 -0.49548,-1.49344 0.58251,-2.26106 l 1.10318,-0.78553 1.2672,1.08869 c 1.23893,1.06446 1.30688,1.07716 3.04947,0.57071 1.5955,-0.4637 1.81725,-0.66698 2.1165,-1.94037 0.30284,-1.28836 0.46634,-1.4335 1.73536,-1.53991 1.33483,-0.11174 1.41325,-0.0525 1.65837,1.25382 0.27994,1.49352 0.80626,1.91367 2.88371,2.30341 1.12198,0.21045 1.5657,0.0845 2.51478,-0.71414 1.19016,-1.00143 1.33456,-0.98419 3.12946,0.3739 0.0734,0.0557 -0.0675,0.71075 -0.31311,1.4557 -0.41675,1.26275 -0.36641,1.45511 0.74688,2.84017 1.13272,1.40946 1.27237,1.47133 2.72298,1.20608 1.45518,-0.26612 1.55318,-0.22189 2.02798,0.91582 0.47128,1.12932 0.43645,1.24866 -0.62946,2.15679 -1.04344,0.88897 -1.10851,1.09362 -0.86462,2.71985 0.22703,1.51547 0.44502,1.84501 1.57537,2.38401 1.15404,0.55036 1.28138,0.75221 1.05956,1.68007 -0.36721,1.536289 -0.46303,1.628479 -1.69154,1.628479 -0.91662,0 -1.25634,0.27244 -1.89041,1.51517 -0.93862,1.83987 -0.95567,2.24008 -0.13385,3.14819 0.60221,0.66544 0.57694,0.77119 -0.43681,1.82927 -1.02161,1.06639 -1.13019,1.09499 -2.15168,0.56673 -0.99958,-0.5169 -1.17868,-0.48677 -2.5284,0.42524 -1.02907,0.69535 -1.50837,1.33309 -1.64392,2.18734 -0.15478,0.97544 -0.43831,1.27643 -1.48444,1.57553 -1.16928,0.33443 -1.36465,0.27165 -2.04053,-0.65634 -0.62942,-0.86399 -1.03437,-1.02608 -2.56394,-1.02608 -1.54591,0 -1.89262,0.1426 -2.32829,0.9565 -0.49572,0.92622 -1.20383,1.10306 -2.77391,0.69279 z m 7.21874,-11.1813 c 2.76309,-1.254779 3.81056,-3.810859 2.60381,-6.353899 -0.99227,-2.09108 -2.565,-2.93875 -5.10307,-2.75049 -1.80043,0.13337 -2.23878,0.336 -3.34777,1.54606 -1.77042,1.93188 -1.80359,4.21966 -0.0892,6.17203 1.02023,1.161959 2.5898,1.980829 3.97841,2.075559 0.21045,0.0151 1.09154,-0.29573 1.95797,-0.68926 z m 21.56956,-0.70255 c -0.003,-0.932969 -1.98972,-2.017649 -2.83183,-1.546359 -0.93455,0.52301 -1.86712,-0.35377 -1.58252,-1.4878 0.2752,-1.09631 -0.76413,-2.80051 -1.70788,-2.80051 -1.06255,0 -1.3331,-1.24702 -0.40439,-1.86404 0.95385,-0.63377 1.06476,-2.53542 0.17688,-3.03234 -0.9642,-0.53959 -0.4988,-1.78049 0.72051,-1.92105 1.38269,-0.15955 2.39877,-1.63951 1.84098,-2.6818 -0.58425,-1.0916 0.46765,-1.94411 1.55839,-1.26292 1.07397,0.67069 2.90062,0.19583 3.22308,-0.83814 0.49695,-1.59334 1.51694,-1.81847 2.13115,-0.47049 0.56237,1.23435 2.55134,1.72351 3.23066,0.79458 0.32417,-0.44348 0.74076,-0.57052 1.29448,-0.39484 0.65647,0.20847 0.7716,0.46339 0.58757,1.3014 -0.2985,1.35843 0.87745,2.5107 2.28707,2.24122 1.23383,-0.23572 2.02486,0.89608 1.13963,1.63072 -1.06832,0.88669 -0.31232,3.43678 1.01849,3.43678 0.75134,0 0.1453,1.72056 -0.64584,1.83379 -1.05091,0.1505 -1.8458,2.16316 -1.09904,2.78292 0.77227,0.64095 -0.0316,1.96499 -1.10919,1.83518 -1.18029,-0.14177 -2.55631,0.71027 -2.55631,1.58271 0,0.40609 -0.37391,0.938339 -0.83051,1.182779 -0.67636,0.36206 -0.91512,0.32889 -1.28568,-0.17768 -0.57638,-0.788269 -2.69892,-0.822569 -2.99596,-0.0485 -0.31943,0.83274 -2.15662,0.75141 -2.1597,-0.0956 z m 3.97655,-6.200849 c 1.32363,-0.50327 2.25241,-2.36892 1.7878,-3.59102 -0.78561,-2.06634 -3.40036,-2.80433 -4.9199,-1.38866 -1.70184,1.58548 -1.29058,4.1149 0.80638,4.95958 1.10804,0.4463 1.20252,0.44711 2.32572,0.0198 z"
         id="path1627" />
    </g>
    <g
       inkscape:groupmode="layer"
       id="layer4"
       inkscape:label="cestoprednaska"
       style="display:inline"
       transform="translate(3.4332956,60.91443)">
      <path
         style="display:inline;fill:#93a7ac;stroke-width:0.440457"
         d="M 43.816037,100.37426 C 25.327086,96.311757 10.887896,82.733236 6.3584946,65.149465 2.6900046,50.907896 5.7362746,35.730285 14.634896,23.913236 21.062966,15.376991 31.619734,8.5361485 42.521277,5.8427465 c 3.058977,-0.755803 5.293778,-0.981019 9.89725,-0.997365 11.13903,-0.03987 20.426199,2.971645 28.930719,9.3800175 12.705725,9.574005 19.611544,23.603664 19.646294,39.912647 0.0118,4.806508 -0.17253,6.42003 -1.140199,10.04824 -5.05502,18.95842 -19.468014,32.673791 -38.077316,36.234374 -4.066699,0.77806 -14.33045,0.75154 -17.961988,-0.0501 z m 6.400239,-14.743723 v -9.689972 h -6.82706 c -4.383921,0 -6.827041,0.162232 -6.827041,0.452641 0,0.869011 2.643751,5.68085 5.11615,9.311751 2.61152,3.83528 7.51768,9.61527 8.161581,9.61527 0.206909,0 0.37628,-4.36049 0.37628,-9.69004 z m 8.691581,6.26028 c 3.514788,-4.04109 9.807448,-13.843082 9.807448,-15.277002 0,-0.12751 -3.072159,-0.232949 -6.82701,-0.232949 h -6.827059 v 9.485181 c 0,10.90818 -0.169781,10.6423 3.846621,6.0246 z m 12.064809,0.44765 c 1.544339,-0.7034 3.997111,-2.03654 5.450589,-2.96244 2.964151,-1.88824 9.370422,-8.158112 11.590146,-11.343233 l 1.45799,-2.09219 h -7.290406 -7.290488 l -2.041562,4.074242 c -2.416408,4.822261 -4.96638,8.852321 -7.79939,12.326441 -1.13307,1.38956 -2.060109,2.60751 -2.060109,2.70663 0,0.33047 5.137499,-1.41322 7.98323,-2.70945 z m -29.19843,2.21134 c -0.0806,-0.18162 -1.435131,-2.06531 -3.009791,-4.18577 -1.57462,-2.12045 -4.08046,-6.18363 -5.56859,-9.029232 l -2.705679,-5.173919 -7.094451,-0.121132 c -5.19817,-0.0884 -7.0944,0.01979 -7.0944,0.395071 0,0.2839 0.7259,1.42839 1.613201,2.5435 5.46189,6.864382 11.57307,11.388962 19.449191,14.399812 4.03479,1.54241 4.6477,1.7052 4.410519,1.17161 z M 29.074486,70.725156 c 0,-0.44564 -0.27559,-1.726851 -0.61259,-2.84639 -0.33681,-1.119571 -0.84591,-3.7772 -1.13098,-5.905992 -0.28509,-2.128779 -0.61304,-4.514668 -0.728721,-5.301988 l -0.210449,-1.431452 h -8.59591 -8.5959114 l 0.27678,2.092151 c 0.5510504,4.166751 1.2258504,7.005561 2.5129714,10.570879 l 1.311729,3.633722 h 7.886541 c 7.36593,0 7.88654,-0.0536 7.88654,-0.81093 z m 42.655449,-2.602492 c 0.83279,-3.127928 1.366891,-6.022578 2.031791,-11.011439 l 0.24954,-1.871891 h -9.47497 -9.474981 v 8.14836 8.148392 h 7.879911 7.87994 z m 21.557896,-0.220339 c 1.2871,-3.565308 1.96197,-6.40415 2.51292,-10.57088 l 0.27679,-2.09215 h -8.615824 -8.615831 l -5.29e-4,1.65173 c -7.94e-4,1.96809 -0.968341,7.65221 -1.942902,11.413061 -0.38458,1.48417 -0.69941,2.81848 -0.69941,2.96521 0,0.14697 3.54893,0.266909 7.88652,0.266909 h 7.886506 z M 50.216276,62.947166 v -8.14831 h -9.469771 c -10.879979,0 -9.829419,-0.581872 -8.9941,4.980869 0.413519,2.753892 1.831461,9.139369 2.39055,10.765271 0.141771,0.413128 2.17234,0.550328 8.131302,0.550328 h 7.942019 z M 26.432355,48.742636 c 8.74e-4,-2.452031 1.239291,-9.166331 2.477791,-13.43384 0.20729,-0.714071 -0.36484,-0.770848 -7.75893,-0.770848 h -7.982631 l -0.870589,1.968201 c -1.12742,2.548655 -2.4172414,7.649596 -2.8157614,11.135326 l -0.31468,2.75287 h 8.6321104 8.632111 z m 23.783921,-6.276451 v -7.928237 h -8.06789 -8.06786 l -0.730731,3.193307 c -0.674759,2.948789 -1.20322,6.058191 -1.83397,10.79115 l -0.249549,1.87194 h 9.474969 9.474941 z m 23.782721,7.157339 c -0.003,-1.71514 -1.40911,-9.326639 -2.236142,-12.112511 l -0.882589,-2.973065 h -7.90947 -7.90956 v 7.928237 7.92816 h 9.469771 c 8.725839,0 9.469638,-0.0608 9.46799,-0.770821 z m 22.022784,0.219932 c -0.009,-1.934921 -1.44186,-8.59228 -2.49387,-11.561873 l -1.2483,-3.523628 -8.089295,-0.120039 c -7.594939,-0.113311 -8.070049,-0.07265 -7.774319,0.660606 0.563409,1.396902 1.911948,8.629113 2.219309,11.902424 l 0.300091,3.193259 h 8.544139 c 6.542585,0 8.543745,-0.12918 8.542495,-0.55028 z M 50.216276,19.992592 v -9.700154 l -1.00842,0.660764 c -1.48476,0.972847 -5.049419,5.230289 -7.72264,9.223346 -2.378609,3.553008 -4.923041,8.237272 -4.923041,9.06312 0,0.291392 2.44312,0.452684 6.827041,0.452684 h 6.82706 z m 18.499029,9.247076 c 0,-0.855223 -2.741629,-5.936144 -5.103098,-9.45717 -1.299782,-1.937993 -3.745961,-5.010166 -5.435992,-6.827022 l -3.07277,-3.3034295 -0.01979,10.0203305 -0.01979,10.02033 h 6.827031 c 4.38391,0 6.827012,-0.162282 6.827012,-0.452684 z m 20.260906,-0.05962 c 0,-0.814634 -3.283554,-4.8469 -6.275314,-7.706174 -3.01207,-2.878581 -6.771262,-5.555598 -10.326661,-7.353739 -2.548229,-1.288836 -8.933479,-3.527421 -9.226191,-3.234688 -0.103528,0.103445 0.732261,1.318333 1.85737,2.699481 2.587731,3.176727 6.128102,8.838379 8.089432,12.936307 l 1.516578,3.168669 h 7.182382 c 5.146609,0 7.182404,-0.144114 7.182404,-0.509937 z M 31.929567,26.716876 c 1.85796,-4.063852 5.063749,-9.290191 7.846377,-12.791871 1.420681,-1.787758 2.500522,-3.333002 2.399652,-3.433963 -0.307189,-0.30758 -5.164712,1.5013 -8.941321,3.329291 -1.962549,0.949945 -4.77515,2.634295 -6.2502,3.743164 -2.997339,2.253115 -8.716439,8.183297 -9.93687,10.303588 l -0.795699,1.382414 h 7.26012 7.26007 z"
         id="path847" />
    </g>
    <g
       inkscape:groupmode="layer"
       id="layer2"
       inkscape:label="workshop"
       style="display:inline">
      <path
         style="display:inline;fill:#93a7ac;stroke-width:0.104009"
         d="m 33.611286,155.01029 c -0.65286,-0.20097 -1.36255,-0.85151 -1.66377,-1.52462 -0.22704,-0.50739 -0.24915,-0.71167 -0.2835,-2.6342 l -0.0355,-2.08416 -0.64114,-0.24558 c -1.46541,-0.56103 -3.31381,-1.62307 -4.65193,-2.673 -0.31824,-0.24953 -0.61452,-0.45413 -0.65851,-0.45413 -0.0438,0 -0.69634,0.3585 -1.44966,0.79654 -0.75331,0.43796 -1.60368,0.90577 -1.8897,1.03907 -1.03401,0.48237 -2.35333,0.22979 -3.1408,-0.6008 -0.18281,-0.19308 -1.22258,-1.89144 -2.31044,-3.77443 -1.42688,-2.46984 -1.99703,-3.55146 -2.04666,-3.88242 -0.14055,-0.93846 0.15004,-1.86767 0.78305,-2.5005 0.17255,-0.17292 1.06694,-0.74695 1.98739,-1.27639 1.50935,-0.86817 1.66776,-0.98575 1.6143,-1.19864 -0.33008,-1.31605 -0.32771,-5.12535 0.004,-6.44838 0.0494,-0.19624 -0.13898,-0.33522 -1.53778,-1.13793 -1.71155,-0.98216 -2.27021,-1.4266 -2.60231,-2.07034 -0.25625,-0.49672 -0.35457,-1.4274 -0.2069,-1.96105 0.15517,-0.56282 3.94738,-7.10199 4.3543,-7.50891 0.56944,-0.56945 1.01245,-0.73047 2.00977,-0.73047 h 0.884051 l 1.792929,1.02596 1.792931,1.0259 0.3676,-0.32296 c 0.96412,-0.84646 2.937488,-2.03066 4.465119,-2.67942 l 1.04617,-0.44432 0.0612,-2.11091 c 0.0679,-2.34581 0.12319,-2.57637 0.79213,-3.31684 0.20927,-0.23178 0.57098,-0.52321 0.8037,-0.64779 0.41189,-0.22032 0.53615,-0.22702 4.67716,-0.25664 4.67273,-0.0315 4.787229,-0.0236 5.559501,0.59037 0.214399,0.16978 0.527977,0.55803 0.6967,0.86253 0.305999,0.55221 0.30679,0.55957 0.358508,2.71627 l 0.0521,2.16253 0.86399,0.35338 c 1.53921,0.62966 3.14356,1.56472 4.51034,2.62877 l 0.58985,0.45919 1.44989,-0.84041 c 2.09565,-1.2148 2.2971,-1.29251 3.20129,-1.23446 0.85893,0.0552 1.52834,0.37668 1.95856,0.94125 0.41774,0.54812 3.97691,6.76815 4.11882,7.19807 0.2136,0.64748 0.0857,1.73242 -0.27323,2.31846 -0.33443,0.54589 -0.83746,0.90904 -2.80992,2.02891 l -1.24134,0.70483 0.12871,0.8553 c 0.16544,1.09901 0.16623,4.14401 10e-4,5.23969 l -0.12792,0.84803 1.61343,0.92011 c 2.4255,1.38321 2.89082,1.96645 2.79239,3.50013 l -0.049,0.76189 -1.8974,3.29141 c -1.04361,1.81032 -2.03209,3.47737 -2.19666,3.70456 -0.57236,0.79012 -1.754,1.21268 -2.82768,1.01131 -0.19585,-0.0356 -1.14153,-0.51329 -2.1015,-1.05901 -1.52073,-0.86442 -1.769,-0.97474 -1.92852,-0.85679 -1.91738,1.41771 -3.19429,2.18824 -4.70255,2.83776 l -1.072893,0.46218 -0.0541,2.11014 c -0.0612,2.3918 -0.122791,2.63486 -0.85752,3.38526 -0.81965,0.83717 -0.95685,0.85814 -5.56685,0.84985 -3.15975,-0.003 -4.12924,-0.0402 -4.50394,-0.15435 z m 7.52692,-12.56238 c 3.281709,-0.86041 6.150819,-3.15886 7.683739,-6.15558 3.54682,-6.93354 -0.22979,-15.26368 -7.805549,-17.21617 -1.74574,-0.44995 -4.2011,-0.43111 -5.98554,0.0458 -3.95231,1.05661 -7.13405,4.07641 -8.38538,7.95865 -0.58989,1.83016 -0.74202,3.59443 -0.46717,5.41761 0.58614,3.88828 3.0794,7.33895 6.55833,9.07692 0.78972,0.39446 2.2896,0.89891 3.16721,1.06496 1.27759,0.24204 3.95318,0.14378 5.23436,-0.19268 z m -4.80647,-2.5746 c -1.43137,-0.28073 -3.09732,-1.09174 -4.26759,-2.07753 -1.24975,-1.05273 -2.34669,-2.77892 -2.87416,-4.5229 -0.2448,-0.80969 -0.2827,-1.12059 -0.29179,-2.38704 -0.008,-1.11922 0.0355,-1.63656 0.18913,-2.23617 0.88452,-3.46493 3.47511,-6.05027 6.89415,-6.88013 1.25089,-0.30364 3.16377,-0.29969 4.3477,0.009 1.53012,0.39879 3.017571,1.21978 4.140809,2.28541 2.01664,1.91332 2.99166,4.3806 2.85047,7.21325 -0.12043,2.41663 -0.97439,4.31797 -2.72397,6.06502 -1.257398,1.25564 -2.87333,2.13668 -4.548949,2.4802 -0.86648,0.17806 -2.92635,0.2061 -3.71592,0.051 z m 48.265969,3.63755 c -2.71742,-0.31509 -5.13,-1.53712 -7.08655,-3.58883 -1.64716,-1.72743 -2.6444,-3.71801 -3.06187,-6.11205 -0.23967,-1.37416 -0.18834,-3.5743 0.10661,-4.55116 0.0486,-0.16106 -1.88141,-2.26034 -18.72865,-20.37087 -1.78266,-1.91639 -5.21457,-5.60672 -7.62645,-8.20082 l -4.385249,-4.716564 -2.00307,-0.0237 c -1.71996,-0.0197 -2.12692,-0.0565 -2.87953,-0.26178 -4.56253,-1.24466 -7.90908,-4.8409 -8.69414,-9.34279 -0.17728,-1.01655 -0.20334,-3.11951 -0.0458,-3.68658 0.14609,-0.52597 0.53371,-0.8108 1.1035,-0.8108 0.54287,0 0.53406,-0.008 2.63828,2.28821 1.88726,2.05909 2.33501,2.32103 3.23986,1.89547 0.20966,-0.0983 1.80853,-1.50382 3.55305,-3.12275 3.40558,-3.16026 3.595019,-3.38962 3.44921,-4.1763 -0.09,-0.48613 -0.3214,-0.77795 -2.245381,-2.83314 -1.743419,-1.86222 -1.878019,-2.09115 -1.608659,-2.73581 0.25349,-0.60679 0.62097,-0.71513 2.18812,-0.64528 2.877559,0.12832 5.350599,1.17946 7.438669,3.16192 2.1263,2.01874 3.3567,4.53039 3.6535,7.45817 0.11331,1.11594 0.0656,2.04827 -0.17847,3.49757 -0.0612,0.36365 -0.0198,0.41241 3.56375,4.26436 1.99414,2.14323 6.40991,6.89268 9.81284,10.554394 3.40297,3.66174 8.31676,8.94813 10.91958,11.74746 2.60283,2.79944 5.10687,5.50093 5.56448,6.00337 l 0.83209,0.91358 1.30013,-0.06 c 6.16618,-0.28548 11.42155,3.95364 12.33003,9.94511 0.27836,1.83649 0.1536,3.47683 -0.29889,3.92936 -0.3372,0.3372 -0.91963,0.41139 -1.29863,0.16575 -0.16543,-0.10738 -1.06042,-1.01402 -1.98886,-2.01509 -0.92842,-1.00111 -1.8356,-1.90203 -2.016,-2.00216 -0.38418,-0.2136 -0.98166,-0.23572 -1.39218,-0.0522 -0.41177,0.1844 -6.5977,5.94137 -6.8177,6.34517 -0.20926,0.38416 -0.2286,0.9388 -0.0474,1.34869 0.0687,0.15603 0.89759,1.1112 1.84147,2.12309 0.94386,1.01182 1.77299,1.93745 1.84247,2.05689 0.18045,0.30995 0.16229,0.90993 -0.0355,1.19305 -0.35891,0.51249 -1.14662,0.62409 -2.93812,0.41634 z"
         id="path895-1" />
    </g>
    <g
       inkscape:groupmode="layer"
       id="layer3"
       inkscape:label="prednaska"
       style="display:inline">
      <path
         style="display:inline;fill:#93a7ac;stroke-width:0.545542"
         d="m 29.032859,162.15438 c -2.0213,-1.23254 -3.21119,-3.83777 -2.76711,-6.0583 0.17886,-0.89377 4.62681,-8.44125 9.88458,-16.77226 l 9.55963,-15.14722 0.003,-14.59328 0.003,-14.593326 h -2.15125 c -1.60459,0 -2.36703,-0.30798 -3.00047,-1.21247 -1.12241,-1.60246 -1.07128,-2.38437 0.24204,-3.69745 1.03618,-1.03617 1.81847,-1.0911 15.54801,-1.0911 13.72954,0 14.51184,0.0549 15.54802,1.0911 0.60007,0.60012 1.0911,1.45934 1.0911,1.90941 0,1.4758 -2.07915,3.00051 -4.09161,3.00051 h -1.90949 v 14.619026 14.61907 l 9.81861,15.52223 c 10.23607,16.18225 10.61721,17.03732 8.99347,20.17728 -1.69161,3.27117 -1.55002,3.25558 -29.55947,3.25336 -24.01627,-0.001 -25.631,-0.0627 -27.21143,-1.02658 z m 51.59743,-5.3061 c 0,-0.1836 -4.14148,-6.87332 -9.20325,-14.86608 -5.06181,-7.99279 -9.48071,-15.06851 -9.81979,-15.72392 -0.41466,-0.80137 -0.61655,-6.11662 -0.61655,-16.22993 V 94.989994 h -4.63716 -4.63712 v 15.038356 c 0,10.24614 -0.19939,15.41803 -0.62519,16.22993 -0.3439,0.65541 -4.76279,7.73702 -9.81979,15.73699 -5.05703,7.99997 -9.1946,14.68975 -9.1946,14.86608 0,0.17609 10.92451,0.32061 24.2767,0.32061 13.35223,0 24.27675,-0.14999 24.27675,-0.33364 z m -43.43924,-2.64845 c -0.1761,-0.45898 1.65813,-3.88934 4.30269,-8.04679 5.42068,-8.52167 5.07709,-8.39397 11.90604,-4.42449 4.27747,2.48639 4.74448,2.63158 8.37898,2.60414 2.11698,-0.0151 4.72229,-0.22468 5.78955,-0.46348 l 1.94048,-0.43435 3.10581,4.89922 c 1.70819,2.69455 3.10581,5.29666 3.10581,5.78246 0,0.79722 -1.86242,0.8833 -19.11121,0.8833 -16.29027,0 -19.15649,-0.11811 -19.41815,-0.80001 z m 15.08,-67.549016 c -3.06763,-1.55212 -2.61198,-5.98293 0.72939,-7.09303 3.71434,-1.23399 6.419,4.19443 3.30876,6.64094 -1.69532,1.33353 -2.18721,1.38861 -4.03815,0.45209 z m 4.77816,-11.6053 c -3.78715,-2.05518 -3.49441,-7.95595 0.49596,-9.9966 4.23513,-2.1659 9.29825,2.24561 7.79726,6.7937 -1.1902,3.60635 -4.90565,5.04132 -8.29322,3.2029 z"
         id="path879-6" />
    </g>
  </g>
</svg>
