<?xml version="1.0" encoding="UTF-8" standalone="no"?>
<svg
   xmlns:dc="http://purl.org/dc/elements/1.1/"
   xmlns:cc="http://creativecommons.org/ns#"
   xmlns:rdf="http://www.w3.org/1999/02/22-rdf-syntax-ns#"
   xmlns:svg="http://www.w3.org/2000/svg"
   xmlns="http://www.w3.org/2000/svg"
   xmlns:sodipodi="http://sodipodi.sourceforge.net/DTD/sodipodi-0.dtd"
   xmlns:inkscape="http://www.inkscape.org/namespaces/inkscape"
   width="400"
   height="400"
   viewBox="0 0 105.83333 105.83333"
   version="1.1"
   id="svg841"
   inkscape:version="1.0 (4035a4fb49, 2020-05-01)"
   sodipodi:docname="icons.svg"
   inkscape:export-filename="C:\Users\David\git\piomaximum\img\icon-workshop.png"
   inkscape:export-xdpi="96"
   inkscape:export-ydpi="96">
  <defs
     id="defs835" />
  <sodipodi:namedview
     inkscape:snap-global="false"
     inkscape:snap-text-baseline="true"
     inkscape:snap-center="true"
     inkscape:snap-object-midpoints="true"
     inkscape:snap-bbox-midpoints="true"
     inkscape:snap-bbox-edge-midpoints="true"
     inkscape:bbox-nodes="true"
     inkscape:bbox-paths="true"
     inkscape:snap-bbox="true"
     inkscape:snap-midpoints="true"
     inkscape:snap-intersection-paths="true"
     inkscape:object-paths="true"
     inkscape:snap-smooth-nodes="true"
     units="px"
     inkscape:pagecheckerboard="true"
     id="base"
     pagecolor="#ffffff"
     bordercolor="#666666"
     borderopacity="1.0"
     inkscape:pageopacity="0"
     inkscape:pageshadow="2"
     inkscape:zoom="0.35"
     inkscape:cx="-340.89977"
     inkscape:cy="306.50755"
     inkscape:document-units="mm"
     inkscape:current-layer="layer1"
     inkscape:document-rotation="0"
     showgrid="false"
     fit-margin-top="0"
     fit-margin-left="0"
     fit-margin-right="0"
     fit-margin-bottom="0"
     inkscape:window-width="1920"
     inkscape:window-height="1017"
     inkscape:window-x="-8"
     inkscape:window-y="-8"
     inkscape:window-maximized="1" />
  <metadata
     id="metadata838">
    <rdf:RDF>
      <cc:Work
         rdf:about="">
        <dc:format>image/svg+xml</dc:format>
        <dc:type
           rdf:resource="http://purl.org/dc/dcmitype/StillImage" />
        <dc:title></dc:title>
      </cc:Work>
    </rdf:RDF>
  </metadata>
  <g
     inkscape:label="pozadi"
     inkscape:groupmode="layer"
     id="layer1"
     transform="translate(-3.4332956,-60.91443)">
    <path
       id="path1009"
       d="m -440.2635,500.30745 -23.32517,-7.32644 -5.5954,-0.0118 c -5.15218,-0.0118 -5.72072,-0.0781 -7.17697,-0.84701 -0.86988,-0.4592 -2.06603,-1.52278 -2.6581,-2.36339 l -1.07658,-1.52851 v -33.79053 -33.79062 l 0.85165,-1.36981 c 0.46836,-0.75343 1.50619,-1.80303 2.30629,-2.33256 l 1.45471,-0.96265 h 26.4604 26.46037 l 1.5285,1.07654 c 2.19323,1.54476 3.19836,3.64224 3.19836,6.67394 0,1.33892 0.14881,2.52628 0.33049,2.63867 0.18203,0.11206 5.79333,1.90794 12.47004,3.99009 6.67666,2.08219 12.62161,4.06637 13.21099,4.40943 0.5893,0.3431 1.5582,1.31599 2.15306,2.16237 2.09885,2.9863 2.2128,2.49448 -8.51153,36.73759 -6.86836,21.93083 -9.78149,30.75137 -10.44241,31.61788 -1.3155,1.72463 -2.94721,2.38267 -5.85592,2.36146 -2.16951,-0.0151 -5.19293,-0.87706 -25.78289,-7.34443 z m 28.25002,2.75059 c 0.83007,-0.80714 2.32637,-5.2793 9.92292,-29.65837 11.33847,-36.38753 10.17741,-32.2951 9.57295,-33.74175 -0.27521,-0.65906 -0.95746,-1.43175 -1.5158,-1.71699 -1.00708,-0.51457 -22.85843,-7.42367 -23.47868,-7.42367 -0.18913,0 -0.32654,11.80631 -0.33129,28.43871 -0.009,26.88163 -0.0443,28.51741 -0.67034,29.87424 -0.80178,1.73717 -1.93777,2.83044 -3.71099,3.57136 -1.1174,0.46687 -3.4618,0.55712 -14.70795,0.56629 -7.40167,0.009 -13.13814,0.14528 -12.84036,0.31231 0.29614,0.16542 8.20865,2.67698 17.58361,5.58095 9.37489,2.90392 17.20678,5.33286 17.40416,5.39771 0.68758,0.22544 1.80083,-0.25666 2.77171,-1.20044 z m 10.25452,-48.38301 c -0.45582,-0.11995 -0.63728,-0.63123 -0.71771,-2.02173 l -0.10793,-1.86107 -2.67105,-0.85796 -2.67106,-0.85784 -1.12458,1.33954 c -0.79742,0.94984 -1.35555,1.3038 -1.91848,1.21674 -0.43666,-0.0675 -0.8247,-0.27164 -0.86237,-0.45383 -0.0395,-0.18201 1.94688,-3.04718 4.41008,-6.36696 4.07578,-5.49301 4.55922,-6.01735 5.375,-5.82995 0.49299,0.11324 0.92502,0.23452 0.95994,0.26967 0.25981,0.2594 0.51588,15.65893 0.25981,15.62584 -0.1773,-0.0236 -0.59658,-0.11408 -0.93208,-0.20216 z m -0.90376,-9.51983 -0.20018,-3.12509 -1.78401,2.46859 c -0.98117,1.3577 -1.76493,2.60255 -1.74169,2.76622 0.0573,0.4036 3.38404,1.52294 3.68604,1.24035 0.1322,-0.12365 0.15048,-1.63128 0.0399,-3.35007 z m -21.04241,43.62664 c 2.40316,-1.14042 2.28121,0.69942 2.28121,-34.4177 0,-29.33914 -0.0474,-31.89075 -0.61221,-32.84667 -1.30392,-2.2074 -0.51227,-2.14871 -27.53052,-2.04207 l -24.59454,0.0968 -1.17298,1.17308 -1.17304,1.17304 -0.0951,31.95425 c -0.0852,28.56635 -0.0356,32.08139 0.47402,33.15418 1.14002,2.40243 0.2357,2.32433 27.01909,2.3334 21.63621,0.009 24.2976,-0.0533 25.40436,-0.57852 z m -43.98992,-3.84536 c -1.10472,-2.90574 -4.6854,-13.27116 -4.6854,-13.5635 0,-0.19425 0.43163,-0.30245 0.95913,-0.24006 0.77215,0.0912 1.0579,0.41102 1.46534,1.63868 l 0.50614,1.52509 h 2.94614 2.94613 l 0.55382,-1.52509 c 0.43929,-1.20996 0.75122,-1.54859 1.50951,-1.63868 0.52568,-0.0624 0.95583,-0.003 0.95583,0.13154 0,0.13455 -0.9907,3.01174 -2.2016,6.39345 -1.21085,3.38165 -2.35707,6.59243 -2.54707,7.13523 -0.45189,1.29096 -1.93799,1.37936 -2.40797,0.14328 z m 2.28174,-5.38937 c 1.29121,-3.43147 1.28379,-3.45603 -1.04614,-3.45603 -1.41292,0 -1.97367,0.13707 -1.97367,0.4821 0,0.39799 0.81751,3.02125 1.62717,5.22113 0.25388,0.69003 0.33917,0.55255 1.39264,-2.2472 z m 12.96995,-15.9819 c -0.11055,-0.17846 0.28388,-1.40479 0.87596,-2.72474 0.5922,-1.31999 1.07672,-2.5615 1.07672,-2.75899 0,-0.22269 -0.65575,-0.26889 -1.7262,-0.12164 -2.23472,0.30718 -4.54705,-0.5638 -5.28514,-1.99099 -0.73613,-1.42355 -0.65665,-4.05488 0.17018,-5.63953 1.42221,-2.72495 7.21282,-8.68778 8.43695,-8.68778 0.8059,0 6.53492,5.91161 7.70292,7.94844 1.80964,3.15568 1.36158,6.86808 -0.93872,7.77799 -1.79988,0.71201 -2.79697,0.82473 -4.30175,0.48671 l -1.48026,-0.33285 1.22351,2.85847 c 0.67292,1.5722 1.13294,3.00503 1.02226,3.18409 -0.26217,0.42437 -6.51433,0.42504 -6.77663,7.2e-4 z m 14.87126,-26.03069 c 0,-0.088 1.15411,-3.40667 2.56465,-7.37518 2.47765,-6.97067 2.59578,-7.21175 3.48208,-7.10697 0.85021,0.10068 1.10611,0.64241 3.4921,7.39461 l 2.57471,7.28618 -1.09494,-0.10936 c -0.9351,-0.0931 -1.16885,-0.33207 -1.60107,-1.63432 l -0.50608,-1.52512 h -2.9737 -2.97364 l -0.45214,1.61486 c -0.40148,1.4337 -0.56767,1.61482 -1.48208,1.61482 -0.56639,0 -1.02986,-0.0718 -1.02989,-0.15955 z m 8.00058,-5.13331 c 0.0813,-0.14815 -0.34353,-1.62616 -0.94471,-3.28468 l -1.09292,-3.01556 -1.00784,2.99934 c -0.55427,1.64963 -1.00778,3.12767 -1.00778,3.28467 0,0.36247 3.85403,0.37784 4.05325,0.0151 z"
       style="fill:#93a7ac;stroke-width:0.358849" />
    <path
       id="path879-6"
       d="m -303.71323,162.80075 c -2.0213,-1.23254 -3.21119,-3.83777 -2.76711,-6.0583 0.17886,-0.89377 4.62681,-8.44125 9.88458,-16.77226 l 9.55963,-15.14722 0.003,-14.59328 0.003,-14.593334 h -2.15125 c -1.60459,0 -2.36703,-0.307975 -3.00047,-1.212474 -1.12241,-1.602458 -1.07128,-2.384362 0.24204,-3.697442 1.03618,-1.036179 1.81847,-1.0911 15.54801,-1.0911 13.72954,0 14.51184,0.05488 15.54802,1.0911 0.60007,0.600119 1.0911,1.45933 1.0911,1.909408 0,1.475794 -2.07915,3.000508 -4.09161,3.000508 h -1.90949 v 14.619034 14.61907 l 9.81861,15.52223 c 10.23607,16.18225 10.61721,17.03732 8.99347,20.17728 -1.69161,3.27117 -1.55002,3.25558 -29.55947,3.25336 -24.01627,-10e-4 -25.631,-0.0627 -27.21143,-1.02658 z m 51.59743,-5.3061 c 0,-0.1836 -4.14148,-6.87332 -9.20325,-14.86608 -5.06181,-7.99279 -9.48071,-15.06851 -9.81979,-15.72392 -0.41466,-0.80137 -0.61655,-6.11662 -0.61655,-16.22993 V 95.636356 h -4.63716 -4.63712 v 15.038364 c 0,10.24614 -0.19939,15.41803 -0.62519,16.22993 -0.3439,0.65541 -4.76279,7.73702 -9.81979,15.73699 -5.05703,7.99997 -9.1946,14.68975 -9.1946,14.86608 0,0.17609 10.92451,0.32061 24.2767,0.32061 13.35223,0 24.27675,-0.14999 24.27675,-0.33364 z m -43.43924,-2.64845 c -0.1761,-0.45898 1.65813,-3.88934 4.30269,-8.04679 5.42068,-8.52167 5.07709,-8.39397 11.90604,-4.42449 4.27747,2.48639 4.74448,2.63158 8.37898,2.60414 2.11698,-0.0151 4.72229,-0.22468 5.78955,-0.46348 l 1.94048,-0.43435 3.10581,4.89922 c 1.70819,2.69455 3.10581,5.29666 3.10581,5.78246 0,0.79722 -1.86242,0.8833 -19.11121,0.8833 -16.29027,0 -19.15649,-0.11811 -19.41815,-0.80001 z m 15.08,-67.549025 c -3.06763,-1.552115 -2.61198,-5.982932 0.72939,-7.093026 3.71434,-1.233993 6.419,4.194426 3.30876,6.640935 -1.69532,1.333533 -2.18721,1.388613 -4.03815,0.452091 z m 4.77816,-11.605299 c -3.78715,-2.055181 -3.49441,-7.955947 0.49596,-9.996599 4.23513,-2.165896 9.29825,2.245613 7.79726,6.793697 -1.1902,3.606351 -4.90565,5.041319 -8.29322,3.202902 z"
       style="fill:#93a7ac;stroke-width:0.545542" />
    <path
       id="path1627"
       d="m -302.17765,507.39875 c -1.59464,-1.34183 -1.60965,-3.34635 -0.0458,-6.1175 2.84194,-5.03559 6.13802,-14.61258 6.13802,-17.83442 0,-0.77491 -0.81692,-2.27186 -2.63532,-4.82909 -5.13276,-7.21812 -8.1061,-13.20969 -9.89458,-19.93843 -1.34572,-5.06268 -1.41857,-13.56327 -0.15635,-18.20181 2.90203,-10.66218 10.04805,-18.89868 19.77647,-22.79413 5.0624,-2.02703 7.64213,-2.43291 15.4829,-2.43608 6.17866,-0.003 7.50915,0.10968 10.46998,0.88452 12.81986,3.35376 22.2062,11.91181 25.86289,23.58048 1.20821,3.85546 1.17098,8.9382 -0.0948,12.88778 l -0.94193,2.94014 1.13441,1.07719 c 2.0281,1.92569 4.86033,5.71983 5.83898,7.82219 1.15483,2.4807 1.21911,4.45486 0.20966,6.4338 -0.86288,1.69134 -1.92563,2.62135 -4.13303,3.61677 -1.42276,0.64158 -1.56554,0.84247 -1.75712,2.47289 -0.6238,5.30871 -0.90296,6.61077 -1.62836,7.59436 -0.56564,0.76689 -0.84949,1.8978 -1.00909,4.02026 -0.27402,3.64283 -1.6404,6.42483 -3.88503,7.9097 -1.47078,0.97298 -1.67373,0.99907 -8.16948,1.05084 -3.66364,0.0277 -6.79922,0.20136 -6.96794,0.3826 -0.16899,0.18122 -0.87259,2.19072 -1.5642,4.46552 -0.97817,3.21712 -1.50398,4.34336 -2.36686,5.06946 l -1.10943,0.93349 h -18.68872 -18.68869 z m 38.6822,-7.618 c 0.93321,-2.91455 1.76975,-4.84083 2.29059,-5.27467 0.7265,-0.60518 1.60336,-0.67712 7.65117,-0.62781 7.57793,0.0615 8.12068,-0.0781 9.39471,-2.42273 0.49343,-0.90802 0.67474,-2.11851 0.6775,-4.52322 0.004,-3.16953 0.0434,-3.31787 1.15159,-4.28009 1.00929,-0.87647 1.09008,-1.09134 0.66953,-1.78093 -0.65887,-1.08028 -0.60094,-1.7065 0.25546,-2.76081 0.61639,-0.75895 0.6999,-1.30743 0.52277,-3.43363 l -0.21084,-2.5304 1.45854,-0.27361 c 2.47979,-0.4652 4.65125,-1.69248 5.15764,-2.91506 0.4068,-0.98205 0.34232,-1.37042 -0.52111,-3.13503 -0.54196,-1.10773 -2.37031,-3.55183 -4.06299,-5.43131 -3.54554,-3.93674 -3.59036,-4.12173 -2.11626,-8.73742 1.20525,-3.77395 1.25109,-7.25518 0.14294,-10.84929 -3.3781,-10.9552 -12.35882,-18.76908 -24.43907,-21.2638 -5.37239,-1.10951 -14.10143,-0.81905 -18.92839,0.62974 -9.74047,2.92362 -16.65857,9.65418 -19.8507,19.31249 -2.23373,6.75857 -2.12669,13.55056 0.33009,20.95524 1.9321,5.82278 3.97229,9.5954 9.26187,17.12645 2.31918,3.30198 2.40095,3.49908 2.40095,5.78564 0,4.38704 -2.85102,13.28037 -6.15765,19.20802 l -1.12269,2.01254 17.28712,-0.0995 17.28713,-0.0995 z m -2.51699,-39.78512 c -0.40341,-0.61567 -0.92487,-0.91927 -1.47875,-0.86087 -0.71849,0.0758 -0.83845,-0.0755 -0.74854,-0.94237 0.0746,-0.71779 -0.1299,-1.15928 -0.66957,-1.4482 -0.76891,-0.41153 -1.09007,-1.53651 -0.43863,-1.53651 0.47713,0 0.81033,-1.48495 0.39129,-1.74393 -0.63518,-0.39247 -0.35733,-1.31691 0.3959,-1.31691 0.87347,0 1.38767,-0.68277 1.231,-1.63463 -0.0967,-0.58875 0.0936,-0.64538 1.44432,-0.42935 1.28414,0.2053 1.55591,0.13974 1.55591,-0.37392 0,-0.3676 0.3135,-0.62282 0.7652,-0.62282 0.45182,0 0.7652,0.25506 0.7652,0.62282 0,0.51399 0.27165,0.57934 1.55591,0.37392 1.35078,-0.21599 1.54122,-0.15956 1.44432,0.42935 -0.15674,0.95186 0.35773,1.63463 1.23096,1.63463 0.75315,0 1.03112,0.92436 0.39594,1.31691 -0.419,0.25901 -0.0857,1.74393 0.39129,1.74393 0.65141,0 0.33008,1.12498 -0.43863,1.53651 -0.5399,0.28904 -0.74404,0.73041 -0.66957,1.4482 0.0884,0.85357 -0.0458,1.03258 -0.77322,1.03258 -0.48411,0 -1.18787,0.40633 -1.5638,0.90297 -0.61078,0.80684 -0.77164,0.84795 -1.51101,0.38615 -0.66539,-0.41553 -0.97628,-0.42378 -1.58742,-0.0423 -0.99247,0.61983 -0.96475,0.62765 -1.68818,-0.4764 z m 3.75995,-3.85877 c 0.87966,-0.87967 0.73523,-1.97155 -0.35497,-2.68607 -0.88609,-0.58057 -1.02697,-0.58057 -1.91303,0 -0.52609,0.3447 -0.95646,0.95481 -0.95646,1.35577 0,0.92906 0.99282,1.93152 1.91299,1.93152 0.3909,0 0.98106,-0.27047 1.31174,-0.60122 z m -26.65913,4.1635 c -0.46086,-0.12044 -0.66957,-0.5547 -0.66957,-1.39319 0,-1.02742 -0.25941,-1.37476 -1.65549,-2.21809 -1.47598,-0.89155 -1.7767,-0.94845 -2.77382,-0.52495 -1.01099,0.42943 -1.21801,0.38261 -2.15571,-0.4894 l -1.03733,-0.96444 0.75798,-1.06452 0.75801,-1.06452 -0.84906,-1.74762 c -0.74483,-1.53304 -0.99907,-1.74759 -2.07098,-1.74759 -1.27474,0 -1.6864,-0.50398 -1.6864,-2.06473 0,-0.59432 0.39444,-1.0425 1.29638,-1.47256 1.12186,-0.53498 1.31932,-0.84066 1.46663,-2.27081 0.15004,-1.45542 0.0355,-1.76674 -0.94209,-2.60915 -0.9867,-0.84842 -1.06697,-1.07534 -0.71083,-2.00862 0.35062,-0.9186 0.60675,-1.05219 2.0187,-1.05219 1.29196,0 1.86455,-0.23965 2.8466,-1.19146 1.20419,-1.16718 1.21864,-1.22155 0.70866,-2.66706 -0.50875,-1.44193 -0.49548,-1.49344 0.58251,-2.26106 l 1.10318,-0.78553 1.2672,1.08869 c 1.23893,1.06446 1.30688,1.07716 3.04947,0.57071 1.5955,-0.4637 1.81725,-0.66698 2.1165,-1.94037 0.30284,-1.28836 0.46634,-1.4335 1.73536,-1.53991 1.33483,-0.11174 1.41325,-0.0525 1.65837,1.25382 0.27994,1.49352 0.80626,1.91367 2.88371,2.30341 1.12198,0.21045 1.5657,0.0845 2.51478,-0.71414 1.19016,-1.00143 1.33456,-0.98419 3.12946,0.3739 0.0734,0.0557 -0.0675,0.71075 -0.31311,1.4557 -0.41675,1.26275 -0.36641,1.45511 0.74688,2.84017 1.13272,1.40946 1.27237,1.47133 2.72298,1.20608 1.45518,-0.26612 1.55318,-0.22189 2.02798,0.91582 0.47128,1.12932 0.43645,1.24866 -0.62946,2.15679 -1.04344,0.88897 -1.10851,1.09362 -0.86462,2.71985 0.22703,1.51547 0.44502,1.84501 1.57537,2.38401 1.15404,0.55036 1.28138,0.75221 1.05956,1.68007 -0.36721,1.53629 -0.46303,1.62848 -1.69154,1.62848 -0.91662,0 -1.25634,0.27244 -1.89041,1.51517 -0.93862,1.83987 -0.95567,2.24008 -0.13385,3.14819 0.60221,0.66544 0.57694,0.77119 -0.43681,1.82927 -1.02161,1.06639 -1.13019,1.09499 -2.15168,0.56673 -0.99958,-0.5169 -1.17868,-0.48677 -2.5284,0.42524 -1.02907,0.69535 -1.50837,1.33309 -1.64392,2.18734 -0.15478,0.97544 -0.43831,1.27643 -1.48444,1.57553 -1.16928,0.33443 -1.36465,0.27165 -2.04053,-0.65634 -0.62942,-0.86399 -1.03437,-1.02608 -2.56394,-1.02608 -1.54591,0 -1.89262,0.1426 -2.32829,0.9565 -0.49572,0.92622 -1.20383,1.10306 -2.77391,0.69279 z m 7.21874,-11.1813 c 2.76309,-1.25478 3.81056,-3.81086 2.60381,-6.3539 -0.99227,-2.09108 -2.565,-2.93875 -5.10307,-2.75049 -1.80043,0.13337 -2.23878,0.336 -3.34777,1.54606 -1.77042,1.93188 -1.80359,4.21966 -0.0892,6.17203 1.02023,1.16196 2.5898,1.98083 3.97841,2.07556 0.21045,0.0151 1.09154,-0.29573 1.95797,-0.68926 z m 21.56956,-0.70255 c -0.003,-0.93297 -1.98972,-2.01765 -2.83183,-1.54636 -0.93455,0.52301 -1.86712,-0.35377 -1.58252,-1.4878 0.2752,-1.09631 -0.76413,-2.80051 -1.70788,-2.80051 -1.06255,0 -1.3331,-1.24702 -0.40439,-1.86404 0.95385,-0.63377 1.06476,-2.53542 0.17688,-3.03234 -0.9642,-0.53959 -0.4988,-1.78049 0.72051,-1.92105 1.38269,-0.15955 2.39877,-1.63951 1.84098,-2.6818 -0.58425,-1.0916 0.46765,-1.94411 1.55839,-1.26292 1.07397,0.67069 2.90062,0.19583 3.22308,-0.83814 0.49695,-1.59334 1.51694,-1.81847 2.13115,-0.47049 0.56237,1.23435 2.55134,1.72351 3.23066,0.79458 0.32417,-0.44348 0.74076,-0.57052 1.29448,-0.39484 0.65647,0.20847 0.7716,0.46339 0.58757,1.3014 -0.2985,1.35843 0.87745,2.5107 2.28707,2.24122 1.23383,-0.23572 2.02486,0.89608 1.13963,1.63072 -1.06832,0.88669 -0.31232,3.43678 1.01849,3.43678 0.75134,0 0.1453,1.72056 -0.64584,1.83379 -1.05091,0.1505 -1.8458,2.16316 -1.09904,2.78292 0.77227,0.64095 -0.0316,1.96499 -1.10919,1.83518 -1.18029,-0.14177 -2.55631,0.71027 -2.55631,1.58271 0,0.40609 -0.37391,0.93834 -0.83051,1.18278 -0.67636,0.36206 -0.91512,0.32889 -1.28568,-0.17768 -0.57638,-0.78827 -2.69892,-0.82257 -2.99596,-0.0485 -0.31943,0.83274 -2.15662,0.75141 -2.1597,-0.0956 z m 3.97655,-6.20085 c 1.32363,-0.50327 2.25241,-2.36892 1.7878,-3.59102 -0.78561,-2.06634 -3.40036,-2.80433 -4.9199,-1.38866 -1.70184,1.58548 -1.29058,4.1149 0.80638,4.95958 1.10804,0.4463 1.20252,0.44711 2.32572,0.0198 z"
       style="fill:#93a7ac;stroke-width:0.382601" />
    <path
       id="path1643"
       d="m -108.90675,504.95584 c -5.55895,-0.40313 -11.13437,-1.37404 -16.93193,-2.94864 l -4.69859,-1.27604 -0.10937,-8.65789 c -0.0604,-4.76182 0.0782,-9.67417 0.30718,-10.91631 1.32623,-7.18869 7.03992,-13.35267 14.0646,-15.17295 3.52071,-0.91229 19.638244,-0.90155 22.759258,0.0151 3.585387,1.05315 6.726057,2.95876 9.096987,5.51966 4.57166,4.93795 5.43041,8.13435 5.43041,20.21289 v 8.73849 l -3.28208,1.26573 c -1.80513,0.6961 -4.99939,1.6243 -7.09832,2.06261 -3.398099,0.70962 -12.344625,1.64503 -14.484545,1.51446 -0.44475,-0.0277 -2.71895,-0.18796 -5.05383,-0.35733 z m 33.443475,-19.90405 c -0.26849,-5.22729 -1.1882,-8.62272 -3.30927,-12.21794 -2.3809,-4.03566 -7.31525,-8.17497 -11.32126,-9.49706 -1.63325,-0.53902 -1.79285,-1.16563 -0.57718,-2.26578 1.93002,-1.74666 4.40547,-7.53871 4.40547,-10.30797 v -1.1769 l 7.1765,0.009 c 8.07972,0.009 11.47248,0.5352 14.76956,2.29552 2.64017,1.40962 6.76458,5.43691 7.95235,7.76512 1.97648,3.87425 2.15046,5.01194 2.33953,15.30133 l 0.18005,9.80308 -1.83505,0.78665 c -4.1611,1.78364 -10.701,3.24661 -17.08031,3.82086 l -2.46747,0.2223 -0.23296,-4.53608 z m -67.997385,3.31128 c -2.43818,-0.429 -6.59328,-1.35157 -9.23354,-2.05021 l -4.8005,-1.27016 0.17807,-9.94535 c 0.18715,-10.44562 0.35535,-11.55499 2.33903,-15.44353 1.1878,-2.32823 5.31218,-6.35552 7.95236,-7.76512 3.36601,-1.79713 6.65451,-2.28768 15.38869,-2.29554 5.89884,-0.003 7.82889,0.1161 7.93238,0.49838 0.075,0.27796 0.33798,1.57565 0.58369,2.88379 0.53572,2.85118 1.64064,5.2383 3.51744,7.59905 0.76405,0.96109 1.39094,1.84737 1.39311,1.96945 0.001,0.12198 -0.67834,0.46253 -1.51224,0.75644 -2.74524,0.96765 -6.04054,3.23213 -8.4465,5.80435 -4.14815,4.43473 -6.18828,9.95001 -6.20262,16.7682 l -0.008,3.33553 -2.32474,-0.0315 c -1.27865,-0.0198 -4.31963,-0.38378 -6.75776,-0.81262 z m 34.45216,-24.82272 c -2.19089,-0.60281 -5.2841,-2.47377 -6.83334,-4.13315 -7.52541,-8.06043 -4.16971,-21.20279 6.33288,-24.80235 0.88713,-0.30404 3.07565,-0.54958 4.86332,-0.54559 2.76282,0.009 3.64233,0.19071 5.863623,1.23011 3.199983,1.49748 6.019841,4.23897 7.536112,7.32674 1.01908,2.07535 1.13947,2.74757 1.13947,6.3636 0,3.3279 -0.15952,4.38841 -0.90118,5.99565 -3.216328,6.96895 -10.758605,10.55767 -18.000885,8.56499 z m -27.83895,-16.09499 c -6.7109,-2.83156 -9.99364,-8.04095 -9.57914,-15.20107 0.61283,-10.58638 11.67385,-16.99669 21.47717,-12.44681 4.51216,2.09414 7.92129,7.01788 8.24727,11.91132 l 0.18083,2.7158 -1.79265,1.71059 c -2.02024,1.92782 -4.04423,5.44683 -4.75265,8.26334 -0.43721,1.73816 -0.63992,1.95999 -2.5577,2.79883 -3.18726,1.39414 -8.24221,1.50584 -11.22325,0.24796 z m 52.568305,0.31943 c -1.79771,-0.57262 -1.86977,-0.65871 -2.35112,-2.80954 -0.82313,-3.67824 -2.63942,-6.78611 -5.565625,-9.52343 l -2.664427,-2.49242 0.244016,-2.06181 c 0.508079,-4.2899 4.133826,-9.17554 8.220916,-11.07763 7.63452,-3.55297 16.33119,-0.55591 20.12071,6.93394 1.41516,2.79697 1.86637,7.5443 1.00838,10.60876 -1.20363,4.29902 -4.22305,7.8037 -8.39502,9.74426 -2.7981,1.30155 -7.68121,1.61328 -10.618,0.67787 z"
       style="fill:#93a7ac;stroke-width:0.404309" />
    <path
       style="fill:#93a7ac;stroke-width:0.393191"
       d="m 22.232435,321.17593 c -2.75849,-0.41388 -4.5485,-0.95974 -6.70279,-2.04385 -1.36706,-0.68796 -2.42136,-0.79978 -8.0604296,-0.85483 -4.82506,-0.0469 -7.08488996,-0.2373 -8.81811,-0.74123 -5.53665,-1.6104 -10.7437204,-4.97664 -13.6187004,-8.8041 -0.93658,-1.24687 -1.81481,-2.40502 -1.95159,-2.57358 -0.13656,-0.16858 -1.29622,0.32416 -2.57653,1.09522 -3.87903,2.33583 -7.86714,3.4047 -13.53381,3.6273 -4.61521,0.18163 -4.98079,0.14059 -5.99616,-0.66556 -0.80936,-0.64266 -1.08127,-1.20399 -1.08127,-2.23206 0,-1.95816 0.49508,-2.65359 2.84167,-3.99122 1.94421,-1.10832 4.97766,-3.83706 4.60209,-4.13987 -0.0931,-0.075 -1.29618,-0.81099 -2.67296,-1.6349 -3.42713,-2.05109 -7.14932,-5.63 -9.48098,-9.11615 -5.4642,-8.16964 -5.46233,-18.44351 0.003,-26.61763 9.51115,-14.22042 31.40349,-19.18206 48.7077904,-11.03907 7.6702896,3.60943 14.1734596,10.58048 16.1670296,17.33005 0.42624,1.44314 0.6434,1.65536 1.90594,1.86234 3.33147,0.54626 8.98692,4.89405 11.76096,9.04161 3.40952,5.09762 4.62396,11.46038 3.27409,17.15326 -0.91282,3.84971 -3.43369,8.40991 -6.41171,11.59876 -1.56722,1.67813 -2.6188,3.11812 -2.46217,3.37153 0.1505,0.24324 1.32804,0.94115 2.61705,1.55074 3.19847,1.51269 3.85268,2.17785 3.85268,3.91733 0,2.54849 -2.02924,3.65234 -7.47065,4.06381 -1.40567,0.10617 -3.60899,0.0356 -4.89633,-0.15787 z m -2.4044,-8.8165 c -0.87675,-2.09834 -0.383,-3.1352 2.64155,-5.54857 7.7829,-6.2098 10.31606,-14.33649 6.74328,-21.63305 -1.09533,-2.23689 -4.60557,-5.88671 -6.70664,-6.97319 l -1.25756,-0.65036 -0.22071,1.08681 c -1.25424,6.17069 -3.15111,9.99388 -7.0066,14.12228 -1.51667,1.62406 -3.81147,3.6685 -5.0995096,4.54323 -4.74481,3.22214 -11.62366,5.82358 -17.10992,6.47063 l -2.0923904,0.24678 2.0477204,2.07351 c 4.69113,4.75013 12.48161,6.72303 20.6234896,5.22281 l 2.45627,-0.45252 2.29508,1.43549 c 2.96126,1.8524 3.4408,1.86235 2.68609,0.056 z m -43.06229,-10.6806 c 0.99211,-0.57787 2.66433,-1.77219 3.71604,-2.65403 1.74791,-1.46568 2.08554,-1.59579 3.9319,-1.51555 3.03083,0.13186 9.1041404,-0.64548 12.0196704,-1.53821 9.50333,-2.90982 16.4902196,-9.87515 17.7931596,-17.73826 1.29366,-7.80687 -3.83923,-16.08837 -12.6551696,-20.4181 -5.8149,-2.85584 -7.70322,-3.24555 -15.7276604,-3.24587 l -6.88086,-3.2e-4 -4.01244,1.4133 c -2.20685,0.77724 -5.00677,2.01471 -6.22206,2.74983 -9.85164,5.95951 -13.44544,15.68222 -9.06939,24.53655 2.4419,4.9409 6.4941,8.62191 12.50871,11.36281 2.35482,1.07314 3.03458,1.58359 3.45254,2.59264 0.47346,1.14302 0.42635,1.44825 -0.52161,3.38118 -1.18844,2.42313 -0.93231,2.58818 1.66717,1.07403 z m -6.34989,-21.5622 c -1.31296,-0.73843 -2.2658,-2.48101 -2.2658,-4.14389 0,-0.88417 0.38261,-1.62087 1.33686,-2.57527 1.11529,-1.1153 1.62029,-1.33542 3.04725,-1.32815 2.6523,0.0118 4.26613,1.70871 4.26613,4.48095 0,2.9975 -3.71043,5.07013 -6.38444,3.56636 z m 14.00766,0.20887 c -1.46237,-0.59089 -2.51173,-2.32853 -2.51173,-4.15913 0,-1.35857 0.23492,-1.92114 1.20981,-2.89596 0.99433,-0.99429 1.52658,-1.20978 2.98823,-1.20978 1.49831,0 1.98905,0.21045 3.1153,1.33684 0.9544504,0.9544 1.3368404,1.69114 1.3368404,2.57527 0,3.33072 -3.1462504,5.56172 -6.1384504,4.35276 z m 12.6855304,-0.79482 c -3.14293,-2.75953 -1.43038,-7.47005 2.71579004,-7.47005 3.28519996,0 5.24367996,2.9609 3.97185996,6.00481 -1.14449,2.73911 -4.41951996,3.45665 -6.68765,1.46524 z"
       id="path911-8" />
    <path
       id="path847"
       d="m -443.42592,161.93506 c -18.48895,-4.0625 -32.92814,-17.64102 -37.45754,-35.22479 -3.66849,-14.24157 -0.62222,-29.419179 8.2764,-41.236229 6.42807,-8.536245 16.98484,-15.377087 27.88638,-18.070489 3.05898,-0.755803 5.29378,-0.981019 9.89725,-0.997365 11.13903,-0.03987 20.4262,2.971645 28.93072,9.380017 12.70572,9.574005 19.61155,23.603663 19.64629,39.912646 0.0118,4.80651 -0.17253,6.42003 -1.1402,10.04824 -5.05502,18.95842 -19.46801,32.67379 -38.07731,36.23437 -4.0667,0.77806 -14.33045,0.75154 -17.96199,-0.0501 z m 6.40024,-14.74372 v -9.68997 h -6.82706 c -4.38392,0 -6.82704,0.16223 -6.82704,0.45264 0,0.86901 2.64375,5.68085 5.11615,9.31175 2.61152,3.83528 7.51768,9.61527 8.16158,9.61527 0.20691,0 0.37628,-4.36049 0.37628,-9.69004 z m 8.69158,6.26028 c 3.51479,-4.04109 9.80745,-13.84308 9.80745,-15.277 0,-0.12751 -3.07216,-0.23295 -6.82701,-0.23295 h -6.82706 v 9.48518 c 0,10.90818 -0.16978,10.6423 3.84662,6.0246 z m 12.06481,0.44765 c 1.54434,-0.7034 3.99711,-2.03654 5.45059,-2.96244 2.96415,-1.88824 9.37042,-8.15811 11.59014,-11.34323 l 1.45799,-2.09219 h -7.2904 -7.29049 l -2.04156,4.07424 c -2.41641,4.82226 -4.96638,8.85232 -7.79939,12.32644 -1.13307,1.38956 -2.06011,2.60751 -2.06011,2.70663 0,0.33047 5.1375,-1.41322 7.98323,-2.70945 z m -29.19843,2.21134 c -0.0806,-0.18162 -1.43513,-2.06531 -3.00979,-4.18577 -1.57462,-2.12045 -4.08046,-6.18363 -5.56859,-9.02923 l -2.70568,-5.17392 -7.09445,-0.12113 c -5.19817,-0.0884 -7.0944,0.0198 -7.0944,0.39507 0,0.2839 0.7259,1.42839 1.6132,2.5435 5.46189,6.86438 11.57307,11.38896 19.44919,14.39981 4.03479,1.54241 4.6477,1.7052 4.41052,1.17161 z m -12.69975,-23.82465 c 0,-0.44564 -0.27559,-1.72685 -0.61259,-2.84639 -0.33681,-1.11957 -0.84591,-3.7772 -1.13098,-5.90599 -0.28509,-2.12878 -0.61304,-4.51467 -0.72872,-5.30199 l -0.21045,-1.43145 h -8.59591 -8.59591 l 0.27678,2.09215 c 0.55105,4.16675 1.22585,7.00556 2.51297,10.57088 l 1.31173,3.63372 h 7.88654 c 7.36593,0 7.88654,-0.0536 7.88654,-0.81093 z m 42.65545,-2.60249 c 0.83279,-3.12793 1.36689,-6.02258 2.03179,-11.01144 l 0.24954,-1.87189 h -9.47497 -9.47498 v 8.14836 8.14839 h 7.87991 7.87994 z m 21.55789,-0.22034 c 1.2871,-3.56531 1.96197,-6.40415 2.51292,-10.57088 l 0.27679,-2.09215 h -8.61582 -8.61583 l -4.3e-4,1.65173 c -8.7e-4,1.96809 -0.96834,7.65221 -1.9429,11.41306 -0.38458,1.48417 -0.69941,2.81848 -0.69941,2.96521 0,0.14697 3.54893,0.26691 7.88652,0.26691 h 7.88651 z m -43.07155,-4.95516 v -8.14831 h -9.46977 c -10.87998,0 -9.82942,-0.58187 -8.9941,4.98087 0.41352,2.75389 1.83146,9.13937 2.39055,10.76527 0.14177,0.41313 2.17234,0.55033 8.1313,0.55033 h 7.94202 z m -23.78392,-14.20453 c 8.8e-4,-2.45203 1.23929,-9.16633 2.47779,-13.433839 0.20729,-0.71407 -0.36484,-0.770848 -7.75893,-0.770848 h -7.98263 l -0.87059,1.9682 c -1.12742,2.548657 -2.41724,7.649597 -2.81576,11.135327 l -0.31468,2.75287 h 8.63211 8.63211 z m 23.78392,-6.27645 v -7.928237 h -8.06789 -8.06786 l -0.73073,3.193307 c -0.67476,2.94879 -1.20322,6.05819 -1.83397,10.79115 l -0.24955,1.87194 h 9.47497 9.47494 z m 23.78272,7.15734 c -0.003,-1.71514 -1.40911,-9.32664 -2.23614,-12.112513 l -0.88259,-2.973064 h -7.90947 -7.90956 v 7.928237 7.92816 h 9.46977 c 8.72584,0 9.46964,-0.0608 9.46799,-0.77082 z m 22.02278,0.21993 c -0.009,-1.93492 -1.44186,-8.59228 -2.49387,-11.561872 l -1.2483,-3.523629 -8.08929,-0.120039 c -7.59494,-0.113311 -8.07005,-0.07265 -7.77432,0.660608 0.56341,1.3969 1.91195,8.629112 2.21931,11.902422 l 0.30009,3.19326 h 8.54414 c 6.54258,0 8.54374,-0.12918 8.54249,-0.55028 z m -45.8055,-29.850863 v -9.700154 l -1.00842,0.660764 c -1.48476,0.972847 -5.04942,5.230289 -7.72264,9.223346 -2.37861,3.553008 -4.92304,8.237272 -4.92304,9.06312 0,0.291392 2.44312,0.452684 6.82704,0.452684 h 6.82706 z m 18.49903,9.247076 c 0,-0.855223 -2.74163,-5.936144 -5.1031,-9.45717 -1.29978,-1.937993 -3.74596,-5.010166 -5.43599,-6.827022 l -3.07277,-3.303429 -0.0198,10.02033 -0.0198,10.02033 h 6.82703 c 4.38391,0 6.82701,-0.162282 6.82701,-0.452684 z m 20.26091,-0.05962 c 0,-0.814634 -3.28356,-4.8469 -6.27532,-7.706174 -3.01207,-2.878581 -6.77126,-5.555598 -10.32666,-7.353739 -2.54823,-1.288836 -8.93348,-3.527421 -9.22619,-3.234687 -0.10353,0.103444 0.73226,1.318332 1.85737,2.69948 2.58773,3.176727 6.1281,8.838379 8.08943,12.936307 l 1.51658,3.168669 h 7.18238 c 5.14661,0 7.18241,-0.144114 7.18241,-0.509937 z m -57.04665,-2.463172 c 1.85796,-4.063852 5.06375,-9.290191 7.84638,-12.791871 1.42068,-1.787758 2.50052,-3.333002 2.39965,-3.433963 -0.30719,-0.30758 -5.16471,1.5013 -8.94132,3.329291 -1.96255,0.949945 -4.77515,2.634295 -6.2502,3.743164 -2.99734,2.253115 -8.71644,8.183297 -9.93687,10.303588 l -0.7957,1.382414 h 7.26012 7.26007 z"
       style="fill:#93a7ac;stroke-width:0.440457" />
    <path
       id="path895-1"
       d="m 33.611288,155.01028 c -0.65286,-0.20097 -1.36255,-0.85151 -1.66377,-1.52462 -0.22704,-0.50739 -0.24915,-0.71167 -0.2835,-2.6342 l -0.0355,-2.08416 -0.64114,-0.24558 c -1.46541,-0.56103 -3.31381,-1.62307 -4.65193,-2.673 -0.31824,-0.24953 -0.61452,-0.45413 -0.65851,-0.45413 -0.0438,0 -0.69634,0.3585 -1.44966,0.79654 -0.75331,0.43796 -1.60368,0.90577 -1.8897,1.03907 -1.03401,0.48237 -2.35333,0.22979 -3.1408,-0.6008 -0.18281,-0.19308 -1.22258,-1.89144 -2.31044,-3.77443 -1.42688,-2.46984 -1.99703,-3.55146 -2.04666,-3.88242 -0.14055,-0.93846 0.15004,-1.86767 0.78305,-2.5005 0.17255,-0.17292 1.06694,-0.74695 1.98739,-1.27639 1.50935,-0.86817 1.66776,-0.98575 1.6143,-1.19864 -0.33008,-1.31605 -0.32771,-5.12535 0.004,-6.44838 0.0494,-0.19624 -0.13898,-0.33522 -1.53778,-1.13793 -1.71155,-0.98216 -2.27021,-1.4266 -2.60231,-2.07034 -0.25625,-0.49672 -0.35457,-1.4274 -0.2069,-1.96105 0.15517,-0.56282 3.94738,-7.10199 4.3543,-7.50891 0.56944,-0.56945 1.01245,-0.73047 2.00977,-0.73047 h 0.88405 l 1.79293,1.02596 1.79293,1.0259 0.3676,-0.32296 c 0.96412,-0.84646 2.93749,-2.03066 4.46512,-2.67942 l 1.04617,-0.44432 0.0612,-2.11091 c 0.0679,-2.34581 0.12319,-2.57637 0.79213,-3.31684 0.20927,-0.23178 0.57098,-0.52321 0.8037,-0.64779 0.41189,-0.22032 0.53615,-0.22702 4.67716,-0.25664 4.67273,-0.0315 4.78723,-0.0236 5.5595,0.59037 0.2144,0.16978 0.52798,0.55803 0.6967,0.86253 0.306,0.55221 0.30679,0.55957 0.35851,2.71627 l 0.0521,2.16253 0.86399,0.35338 c 1.53921,0.62966 3.14356,1.56472 4.51034,2.62877 l 0.58985,0.45919 1.44989,-0.84041 c 2.09565,-1.2148 2.2971,-1.29251 3.20129,-1.23446 0.85893,0.0552 1.52834,0.37668 1.95856,0.94125 0.41774,0.54812 3.97691,6.76815 4.11882,7.19807 0.2136,0.64748 0.0857,1.73242 -0.27323,2.31846 -0.33443,0.54589 -0.83746,0.90904 -2.80992,2.02891 l -1.24134,0.70483 0.12871,0.8553 c 0.16544,1.09901 0.16623,4.14401 10e-4,5.23969 l -0.12792,0.84803 1.61343,0.92011 c 2.4255,1.38321 2.89082,1.96645 2.79239,3.50013 l -0.049,0.76189 -1.8974,3.29141 c -1.04361,1.81032 -2.03209,3.47737 -2.19666,3.70456 -0.57236,0.79012 -1.754,1.21268 -2.82768,1.01131 -0.19585,-0.0356 -1.14153,-0.51329 -2.1015,-1.05901 -1.52073,-0.86442 -1.769,-0.97474 -1.92852,-0.85679 -1.91738,1.41771 -3.19429,2.18824 -4.70255,2.83776 l -1.07289,0.46218 -0.0541,2.11014 c -0.0612,2.3918 -0.12279,2.63486 -0.85752,3.38526 -0.81965,0.83717 -0.95685,0.85814 -5.56685,0.84985 -3.15975,-0.003 -4.12924,-0.0402 -4.50394,-0.15435 z m 7.52692,-12.56238 c 3.28171,-0.86041 6.15082,-3.15886 7.68374,-6.15558 3.54682,-6.93354 -0.22979,-15.26368 -7.80555,-17.21617 -1.74574,-0.44995 -4.2011,-0.43111 -5.98554,0.0458 -3.95231,1.05661 -7.13405,4.07641 -8.38538,7.95865 -0.58989,1.83016 -0.74202,3.59443 -0.46717,5.41761 0.58614,3.88828 3.0794,7.33895 6.55833,9.07692 0.78972,0.39446 2.2896,0.89891 3.16721,1.06496 1.27759,0.24204 3.95318,0.14378 5.23436,-0.19268 z m -4.80647,-2.5746 c -1.43137,-0.28073 -3.09732,-1.09174 -4.26759,-2.07753 -1.24975,-1.05273 -2.34669,-2.77892 -2.87416,-4.5229 -0.2448,-0.80969 -0.2827,-1.12059 -0.29179,-2.38704 -0.008,-1.11922 0.0355,-1.63656 0.18913,-2.23617 0.88452,-3.46493 3.47511,-6.05027 6.89415,-6.88013 1.25089,-0.30364 3.16377,-0.29969 4.3477,0.009 1.53012,0.39879 3.01757,1.21978 4.14081,2.28541 2.01664,1.91332 2.99166,4.3806 2.85047,7.21325 -0.12043,2.41663 -0.97439,4.31797 -2.72397,6.06502 -1.2574,1.25564 -2.87333,2.13668 -4.54895,2.4802 -0.86648,0.17806 -2.92635,0.2061 -3.71592,0.051 z m 48.265965,3.63755 c -2.717413,-0.31509 -5.129998,-1.53712 -7.086545,-3.58883 -1.647158,-1.72743 -2.644402,-3.71801 -3.06187,-6.11205 -0.23967,-1.37416 -0.18834,-3.5743 0.10661,-4.55116 0.0486,-0.16106 -1.88141,-2.26034 -18.72865,-20.37087 -1.78266,-1.91639 -5.21457,-5.60672 -7.62645,-8.20082 l -4.38525,-4.716564 -2.00307,-0.02369 c -1.71996,-0.01975 -2.12692,-0.05647 -2.87953,-0.261779 -4.56253,-1.244655 -7.90908,-4.840897 -8.69414,-9.342785 -0.17728,-1.016556 -0.20334,-3.119513 -0.0458,-3.686584 0.14609,-0.525967 0.53371,-0.810802 1.1035,-0.810802 0.54287,0 0.53406,-0.0079 2.63828,2.288216 1.88726,2.059091 2.33501,2.321028 3.23986,1.89547 0.20966,-0.09831 1.80853,-1.503827 3.55305,-3.122753 3.40558,-3.16026 3.59502,-3.389622 3.44921,-4.176301 -0.09,-0.486126 -0.3214,-0.777953 -2.24538,-2.833136 -1.74342,-1.862224 -1.87802,-2.091153 -1.60866,-2.735807 0.25349,-0.606791 0.62097,-0.715135 2.18812,-0.645288 2.87756,0.128327 5.3506,1.179467 7.43867,3.161919 2.1263,2.01874 3.3567,4.530397 3.6535,7.458173 0.11331,1.115937 0.0656,2.048274 -0.17847,3.497574 -0.0612,0.363647 -0.0198,0.41241 3.56375,4.264352 1.99414,2.143232 6.40991,6.892681 9.81284,10.554395 3.40297,3.66174 8.316757,8.94813 10.919581,11.74746 2.602824,2.79944 5.106864,5.50093 5.564474,6.00337 l 0.83209,0.91358 1.30013,-0.06 c 6.16618,-0.28548 11.42155,3.95364 12.33003,9.94511 0.27836,1.83649 0.1536,3.47683 -0.29889,3.92936 -0.3372,0.3372 -0.91963,0.41139 -1.29863,0.16575 -0.16543,-0.10738 -1.06042,-1.01402 -1.98886,-2.01509 -0.92842,-1.00111 -1.8356,-1.90203 -2.016,-2.00216 -0.38418,-0.2136 -0.98166,-0.23572 -1.39218,-0.0522 -0.41177,0.1844 -6.5977,5.94137 -6.8177,6.34517 -0.20926,0.38416 -0.2286,0.9388 -0.0474,1.34869 0.0687,0.15603 0.89759,1.1112 1.84147,2.12309 0.94386,1.01182 1.77299,1.93745 1.84247,2.05689 0.18045,0.30995 0.16229,0.90993 -0.0355,1.19305 -0.35891,0.51249 -1.14662,0.62409 -2.93812,0.41634 z"
       style="fill:#93a7ac;stroke-width:0.104009" />
    <path
       id="path977"
       d="m -342.05022,323.2629 c -2.05957,-0.47322 -4.17449,-1.67543 -5.09884,-2.89846 -0.6438,-0.8518 -2.60386,-4.50531 -5.23259,-9.75344 -3.72748,-7.44179 -5.32714,-10.9681 -5.62114,-12.39151 -0.37509,-1.815 -0.44233,-4.68817 -0.15319,-6.53519 0.16899,-1.07946 1.32623,-4.22259 3.49469,-9.4907 2.4933,-6.05723 2.79397,-6.60528 4.63168,-8.44288 1.21034,-1.21017 2.515,-2.17812 3.75275,-2.78417 1.36939,-0.6705 3.33285,-1.16907 12.56674,-3.19118 7.99658,-1.75109 9.96133,-2.16623 10.65609,-2.25163 1.83845,-0.22585 4.30033,0.49544 6.13645,1.79777 1.52179,1.07942 2.34562,2.25822 4.96101,7.09848 4.41171,8.16482 7.53169,14.21097 7.83678,15.18685 0.42837,1.37033 0.56708,2.43608 0.56952,4.37586 0.003,2.86129 -0.18478,3.57852 -1.91169,7.28796 -1.62647,3.49328 -4.82471,9.82188 -5.44876,10.78178 -1.17255,1.80367 -3.93995,4.27655 -5.86302,5.23908 -1.53921,0.77042 -4.44827,1.59579 -12.86937,3.65141 -9.63836,2.35286 -11.08589,2.62348 -12.40686,2.31997 z m 7.31441,-4.2638 c 1.92181,-0.49387 3.74972,-1.88177 3.92838,-2.98282 0.0498,-0.30639 0.008,-0.40409 -0.3056,-0.71778 -0.32575,-0.32574 -0.41995,-0.36286 -0.91394,-0.36168 -1.64194,0.003 -3.88164,1.09548 -4.70456,2.29149 -0.39595,0.57553 -0.48419,0.92657 -0.32772,1.30412 0.24638,0.59487 1.13221,0.7727 2.32349,0.46658 z m -6.25951,-2.90545 c 0.57085,-1.17499 1.48688,-3.13252 2.03559,-4.3501 1.40314,-3.11327 2.84423,-6.06337 3.25052,-6.65408 0.79063,-1.14949 2.71982,-2.9365 4.22349,-3.91223 1.77453,-1.15148 2.28435,-1.31659 9.66746,-3.13199 2.51998,-0.61959 6.58573,-1.61988 9.035,-2.22295 2.44932,-0.60305 4.5302,-1.15266 4.62429,-1.22144 0.19821,-0.14496 0.12597,-0.43519 -0.13346,-0.53461 -0.20137,-0.0774 -0.56632,0.002 -7.45115,1.61769 -12.59764,2.95657 -13.20009,3.08659 -14.28843,3.08496 -1.29447,-0.002 -2.09983,-0.197 -3.37284,-0.81621 -1.33038,-0.64724 -2.29682,-1.51938 -3.06869,-2.76923 -0.69014,-1.11753 -1.77849,-3.15685 -4.23984,-7.94475 -2.8946,-5.63074 -5.19566,-9.95147 -5.55868,-10.43776 -0.15872,-0.21241 -0.46294,-0.1619 -0.46294,0.0767 0,0.24756 1.5702,3.5091 5.01285,10.41261 3.28652,6.5904 4.35177,8.89796 4.77673,10.34761 0.18874,0.64442 0.23414,1.10982 0.27442,2.81244 0.0845,3.59752 -0.0905,4.21332 -3.15964,11.11732 -1.7093,3.84489 -2.44469,5.65215 -2.53838,6.23816 -0.06,0.37588 -0.045,0.42437 0.13384,0.42437 0.16071,0 0.41372,-0.43613 1.23977,-2.13644 z m -6.41612,-3.14737 c 0.77108,-1.01096 0.9006,-3.29573 0.26849,-4.73573 -0.28981,-0.66027 -0.44087,-0.80482 -0.93509,-0.89517 -0.61754,-0.11258 -0.78101,-3.5e-4 -1.15188,0.79194 -0.38062,0.81355 -0.46831,1.69975 -0.29021,2.93212 0.21954,1.51768 0.69556,2.24699 1.46708,2.24802 0.31074,4e-4 0.42891,-0.0624 0.64149,-0.34114 z m 2.71413,-5.98806 c 0.49513,-0.41664 0.76599,-1.19096 0.82356,-2.35435 0.0565,-1.13652 -0.0754,-1.91436 -0.45051,-2.65721 -0.47745,-0.94611 -1.0776,-1.15254 -1.63437,-0.56213 -0.51522,0.54626 -0.72244,1.34226 -0.71335,2.73987 0.008,1.29516 0.1682,1.94578 0.62767,2.55561 0.43362,0.57547 0.8833,0.66839 1.347,0.27836 z m 32.0907,-3.60945 c 1.862,-0.48496 3.76149,-1.99092 3.76149,-2.98218 0,-0.33088 -0.24007,-0.63182 -0.6882,-0.8626 -0.35339,-0.18202 -1.2757,-0.13623 -1.99324,0.0995 -2.3493,0.77128 -3.86908,2.29693 -3.42938,3.44276 0.16899,0.44033 1.27384,0.58254 2.34933,0.30245 z m -29.14361,-2.57134 c 0.15321,-0.14176 0.38023,-0.47792 0.50409,-0.74645 0.19939,-0.43144 0.22545,-0.66236 0.22545,-1.98126 0,-1.42688 -0.0119,-1.51896 -0.28823,-2.08031 -0.33009,-0.67256 -0.79343,-1.11154 -1.17279,-1.11154 -0.35576,0 -0.90565,0.6188 -1.13608,1.27868 -0.2831,0.81113 -0.24203,2.78754 0.0758,3.612 0.44941,1.16702 1.18638,1.59013 1.79198,1.02888 z m -12.00128,-0.62002 c 0.51723,-0.43528 0.68449,-1.11412 0.68409,-2.77696 -3.1e-4,-1.36649 -0.0157,-1.46888 -0.27796,-1.96863 -0.32259,-0.61262 -0.81867,-1.0687 -1.16182,-1.0687 -0.2523,0 -0.6621,0.41264 -0.93668,0.94354 -0.2369,0.45844 -0.35693,1.8137 -0.24637,2.78875 0.12082,1.06841 0.50495,1.87359 1.02578,2.15122 0.46521,0.24795 0.54315,0.24202 0.91307,-0.0695 z m 25.34371,-4.79178 c 0.51879,-0.13421 0.96267,-0.43373 1.30081,-0.87706 0.26493,-0.34706 0.29494,-0.4669 0.29494,-1.16712 0,-0.57006 -0.0548,-0.89109 -0.20374,-1.19204 -0.3064,-0.61959 -1.01177,-1.26394 -1.78329,-1.62948 -0.60821,-0.28783 -0.79454,-0.32693 -1.57317,-0.32693 -0.80234,0 -0.92874,0.0277 -1.37996,0.30877 -0.27323,0.16978 -0.63731,0.48329 -0.80915,0.69651 -0.67774,0.84096 -0.41596,2.222 0.61023,3.21931 1.04684,1.0174 2.16913,1.32395 3.54321,0.96776 z m -22.45506,-1.35383 c 0.79288,-0.81095 1.01454,-3.27583 0.41931,-4.66235 -0.43878,-1.02216 -1.18704,-1.27467 -1.81235,-0.61161 -1.01154,1.07255 -0.91465,4.06887 0.1682,5.20734 0.47484,0.49914 0.78526,0.51603 1.22464,0.0667 z m 38.99614,-3.04642 c 0.83551,-0.42983 1.3933,-1.48761 1.21627,-2.30642 -0.19585,-0.90521 -0.90494,-1.78811 -1.80514,-2.2474 -0.62219,-0.31745 -1.79284,-0.53784 -2.41101,-0.45397 -1.26775,0.17174 -2.01056,0.97701 -2.00851,2.17694 0.003,1.76241 1.75143,3.17913 3.80854,3.08587 0.53185,-0.0236 0.90533,-0.10354 1.19985,-0.25508 z m -36.13375,-3.03164 c 0.60153,-0.65791 0.84716,-1.95422 0.66847,-3.52765 -0.13346,-1.17623 -0.44354,-1.81399 -1.01364,-2.08582 -0.34272,-0.16341 -0.37904,-0.16189 -0.73744,0.0315 -0.22704,0.12197 -0.48025,0.38733 -0.63613,0.6661 -0.24361,0.43557 -0.25902,0.55269 -0.25902,1.95626 0,1.72881 0.10782,2.20207 0.63531,2.7858 0.30165,0.33403 0.43471,0.40602 0.74873,0.40602 0.26454,0 0.44692,-0.0711 0.59372,-0.23178 z m 11.85365,-7.71541 c 0.76939,-0.23691 1.4902,-1.20224 1.49183,-1.99795 0.002,-0.86898 -0.77247,-1.96785 -1.75025,-2.48414 -1.70974,-0.9027 -3.54401,-0.59318 -4.1921,0.70726 -0.31034,0.62303 -0.32851,0.87916 -0.11214,1.60713 0.184,0.61923 0.96729,1.53749 1.656,1.94111 0.73228,0.42916 1.94235,0.52347 2.90662,0.22664 z m 16.03714,-4.28228 c 0.55743,-0.28704 1.03543,-0.84578 1.17891,-1.37865 0.44795,-1.66347 -1.39619,-3.58661 -3.43934,-3.58661 -1.20338,0 -2.23179,0.58002 -2.58248,1.45648 -0.51234,1.28051 0.69112,3.07921 2.44303,3.65128 0.6265,0.20453 1.86866,0.13103 2.39988,-0.14261 z m -55.40301,29.68036 c -0.0565,-0.0198 -0.91378,-0.27518 -1.90479,-0.56749 -5.49964,-1.62172 -21.68233,-7.01749 -22.88205,-7.62957 -0.52182,-0.26613 -1.81316,-1.50076 -2.45623,-2.34815 -0.67111,-0.88442 -1.2968,-2.1736 -1.48416,-3.05801 -0.27282,-1.28796 -0.18913,-2.61147 0.57398,-9.04736 1.31013,-11.05244 1.93247,-13.52051 5.19267,-20.59229 1.61319,-3.49927 3.48701,-7.40601 5.11897,-10.67257 l 1.52547,-3.05346 0.86845,-0.8221 c 1.301,-1.23145 2.05045,-1.68079 3.37996,-2.02636 2.24705,-0.58409 3.26971,-0.366 13.35474,2.84594 7.77654,2.4768 13.57398,4.41424 14.4992,4.84544 1.06004,0.49409 2.52209,1.99386 3.28974,3.37461 0.57737,1.03863 0.77223,1.86089 0.76859,3.2433 -0.004,1.63092 -0.57575,5.28427 -1.94091,12.40685 -1.55773,8.12771 -2.69119,11.40971 -8.71175,25.2256 -1.87932,4.31267 -2.21676,4.93459 -3.21839,5.93161 -0.91682,0.91262 -2.00551,1.54102 -3.18944,1.84098 -0.54069,0.13656 -2.48279,0.20886 -2.78405,0.10298 z m -0.59076,-4.0546 c 0.69696,-0.35733 1.15818,-1.06915 1.15605,-1.78424 -0.001,-0.53083 -0.44052,-1.3412 -1.06425,-1.96497 -1.62221,-1.62219 -3.50935,-1.85333 -4.81962,-0.59039 -0.48671,0.46915 -0.49872,0.49548 -0.49773,1.09169 10e-4,0.79876 0.32219,1.47815 1.02543,2.17024 1.24422,1.22463 3.02334,1.6812 4.20012,1.07767 z m 6.79306,-2.0192 c 0.0703,-0.28311 0.43089,-2.2986 0.80161,-4.47879 1.54102,-9.06352 1.92634,-10.80298 3.50855,-15.8376 0.97928,-3.116 1.39063,-4.14589 5.20991,-13.04311 2.40087,-5.59287 2.44319,-5.71436 1.99154,-5.71436 -0.33759,0 -0.71999,0.78194 -3.57536,7.31024 -2.13395,4.87887 -3.34367,7.45943 -3.90962,8.33987 -0.57892,0.90061 -1.16625,1.41128 -2.19133,1.90519 -2.01124,0.9691 -3.24795,0.89284 -7.52282,-0.46382 -0.56627,-0.17965 -3.87905,-1.24663 -7.36175,-2.37085 -10.98705,-3.54664 -13.06471,-4.18152 -13.33928,-4.07614 -0.16626,0.0636 -0.16575,0.0802 0.003,0.2689 0.3743,0.41363 3.02991,1.34834 14.20892,5.00115 4.58692,1.49882 8.71056,2.90295 9.16359,3.12031 1.95317,0.93703 3.38656,2.57247 4.02508,4.59239 0.47145,1.49126 0.42336,1.96136 -1.20137,11.74174 -0.35773,2.153 -0.61832,3.99788 -0.57928,4.09963 0.0498,0.12919 0.15675,0.1753 0.35497,0.15233 0.24677,-0.0277 0.30047,-0.0998 0.41131,-0.54744 z m -24.90312,-3.71924 c 0.78423,-0.3909 1.09585,-0.90043 1.08964,-1.78207 -0.009,-1.1846 -0.73775,-2.14695 -2.16036,-2.85004 -1.289,-0.63707 -2.65937,-0.6013 -3.49964,0.0912 -0.96379,0.79447 -0.89272,2.16788 0.17176,3.3229 0.92339,1.00176 1.92801,1.47813 3.13027,1.48425 0.58226,0.003 0.83369,-0.0497 1.26821,-0.26612 z m 10.29538,-4.53332 c 0.45675,-0.2219 0.58796,-0.34904 0.75904,-0.73591 0.8619,-1.94841 -1.70105,-4.49687 -4.22419,-4.2003 -0.68423,0.0806 -1.03094,0.25427 -1.44255,0.723 -0.74559,0.84914 -0.51775,2.22226 0.54504,3.28506 1.19414,1.19415 3.01693,1.58197 4.36266,0.92815 z m 9.76262,-4.26633 c 0.24441,-0.11811 0.60636,-0.40456 0.80473,-0.63625 0.31903,-0.37273 0.36048,-0.48746 0.35969,-0.99483 -0.002,-1.53648 -1.50718,-2.99964 -3.42149,-3.32756 -1.69859,-0.29099 -3.01005,0.66597 -2.81935,2.05711 0.16861,1.23097 1.40445,2.49936 2.8956,2.97218 0.66447,0.21045 1.66686,0.17845 2.1809,-0.0707 z m 11.00222,-2.80033 c 0.85111,-1.59783 1.75775,-4.81068 1.66954,-5.91643 -0.0236,-0.29732 -0.0731,-0.57026 -0.10936,-0.60667 -0.36324,-0.36326 -1.85626,3.18209 -2.27661,5.40559 -0.39405,2.08333 -0.0684,2.59098 0.71649,1.11751 z m -28.60696,-3.02225 c 0.60395,-0.37629 0.85548,-0.84247 0.85254,-1.57996 -0.003,-0.70037 -0.25349,-1.27817 -0.82153,-1.89457 -0.85326,-0.92569 -1.88271,-1.4098 -3.0062,-1.41372 -1.15277,-0.003 -1.98493,0.46955 -2.30702,1.31292 -0.84882,2.22256 3.13061,4.91612 5.28221,3.57533 z m 21.7977,-6.1999 c 1.2513,-0.55353 1.7238,-1.7953 1.13371,-2.97947 -0.56526,-1.13425 -1.6757,-1.75771 -3.29225,-1.84841 -1.18377,-0.0663 -1.93741,0.13187 -2.52817,0.66586 -1.64699,1.48795 -0.65828,3.72453 1.90507,4.3094 0.80374,0.18362 2.20123,0.10936 2.78164,-0.14729 z m -6.4409,-10.0898 c 1.11285,-0.42282 1.66193,-1.0588 1.6626,-1.92566 0.002,-2.94412 -5.47052,-4.20062 -6.70286,-1.53892 -0.34389,0.74287 -0.21874,1.6835 0.30996,2.32394 0.35456,0.42963 1.34605,0.9863 2.2235,1.24824 0.75998,0.22663 1.73721,0.1848 2.50699,-0.10738 z m -5.90472,-10.09231 c 0.9097,-0.40686 1.48689,-1.16998 1.4897,-1.96957 0.003,-0.77787 -0.69884,-1.77808 -1.55931,-2.22303 -2.13293,-1.10298 -4.51038,-0.68635 -5.17595,0.90699 -0.2073,0.49647 -0.20374,1.24375 0.009,1.69 0.32098,0.67616 1.55112,1.5266 2.58113,1.7842 0.67937,0.17017 2.07683,0.0707 2.65657,-0.18873 z"
       style="fill:#93a7ac;stroke-width:0.102961" />
    <path
       id="path993"
       d="m -218.19754,324.07734 c -1.05505,-0.58039 -1.71278,-1.21794 -2.34231,-2.27042 l -0.45197,-0.75559 -0.0316,-12.79008 c -0.0158,-7.0345 -0.0466,-15.02037 -0.064,-17.74631 -0.0158,-2.72601 -0.001,-4.95635 0.0355,-4.95635 0.0395,0 0.4329,0.229 0.87867,0.50891 2.15457,1.35263 5.51825,2.7983 7.73887,3.32608 0.85128,0.20217 6.99669,0.29812 8.33602,0.12986 2.11947,-0.26612 5.61491,-1.5931 7.84026,-2.97627 1.75874,-1.09315 3.53232,-2.63831 5.63291,-4.90753 l 0.7682,-0.82989 1.43631,-0.0277 1.43635,-0.0277 1.29097,1.22111 c 1.42988,1.35261 2.70249,2.39715 3.90714,3.20694 7.14751,4.80479 15.90428,5.89942 23.96762,2.99607 1.20281,-0.43305 3.10546,-1.32441 4.59669,-2.15337 l 0.8433,-0.4688 0.0707,1.36161 c 0.11727,2.25019 0.0865,31.58235 -0.0355,33.12267 -0.0884,1.12734 -0.14294,1.4102 -0.35338,1.84421 -0.35338,0.72864 -1.36966,1.70361 -2.33757,2.24285 l -0.7838,0.43669 -30.7522,-0.002 -30.7522,-0.002 -0.87599,-0.48185 z m 37.45745,-17.68684 c 3.10803,-1.62866 6.04307,-3.1719 6.52233,-3.42941 l 0.87137,-0.4683 -9.17032,-4.57736 c -5.04368,-2.51759 -9.30918,-4.62575 -9.47888,-4.68474 l -0.30838,-0.10738 0.064,1.45061 c 0.0355,0.79784 0.0928,4.9777 0.12792,9.28856 0.0494,6.0713 0.0904,7.88576 0.18124,8.0502 l 0.11727,0.21243 2.71128,-1.38656 c 1.49128,-0.76268 5.25426,-2.71919 8.36228,-4.34786 z m 43.04231,12.26261 c -1.49613,-0.76379 -4.78459,-2.46851 -7.3077,-3.7884 l -4.58745,-2.39979 0.001,-9.88003 0.001,-9.88002 2.7884,-1.40511 c 1.5336,-0.77278 4.85784,-2.46554 7.38715,-3.7616 2.52938,-1.29606 4.61544,-2.33987 4.63577,-2.31954 0.0197,0.0198 0.0636,7.86467 0.0959,17.43181 0.058,17.0972 0.0561,17.39484 -0.11727,17.39303 -0.0971,-9.9e-4 -1.40069,-0.62671 -2.89678,-1.39035 z m -72.43136,-31.58631 c -2.91897,-0.30837 -5.97073,-1.61246 -8.4461,-3.60931 -0.93609,-0.75526 -2.58593,-2.48754 -3.24306,-3.4053 -1.45842,-2.03687 -2.60907,-4.64423 -2.97512,-6.74185 -0.33364,-1.91186 -0.25546,-5.90204 0.14569,-7.43338 1.17252,-4.47654 4.01217,-8.32293 7.95145,-10.77013 1.45356,-0.90306 3.49508,-1.73848 5.01834,-2.05361 1.71459,-0.35456 6.00666,-0.35141 7.73756,0.003 0.97182,0.20098 2.2682,0.6817 3.59174,1.33244 4.30929,2.11886 7.52167,5.76884 8.97645,10.19922 0.65631,1.9986 0.7913,2.90899 0.79158,5.33777 2e-4,1.65415 -0.0355,2.30559 -0.16307,2.96034 -0.7166,3.67894 -2.30575,6.69721 -4.90408,9.31433 -1.80149,1.8145 -4.22834,3.3058 -6.88391,4.23016 -1.50802,0.52491 -2.22359,0.61989 -4.87691,0.64754 -1.29326,0.0118 -2.51738,0.009 -2.72021,-0.0151 z m 3.24721,-3.41 c 0.87078,-0.29574 1.83983,-1.15084 2.2145,-1.95454 0.18438,-0.39582 0.22861,-0.63624 0.2294,-1.24484 0.001,-1.25777 -0.4962,-2.2579 -1.4262,-2.86772 -1.81935,-1.1929 -4.11586,-0.5531 -5.03216,1.40182 -0.21361,0.45596 -0.24717,0.64582 -0.24717,1.40327 0,0.75754 0.0316,0.94734 0.24717,1.40345 0.69902,1.49144 2.55904,2.35254 4.0143,1.85856 z m -8.70512,-5.36279 c 1.61355,-0.75988 2.3427,-2.00236 2.09289,-3.56617 -0.19624,-1.22913 -0.87382,-2.16119 -1.93606,-2.66362 -0.524,-0.24796 -0.69591,-0.28271 -1.38317,-0.28073 -1.40816,0.003 -2.46609,0.64611 -3.06305,1.8585 -0.28231,0.57307 -0.30363,0.68214 -0.30363,1.54088 0,0.76902 0.0355,1.00147 0.21203,1.38513 0.53501,1.16348 2.1195,2.13459 3.3206,2.03524 0.27284,-0.0236 0.74234,-0.15955 1.06043,-0.30915 z m 18.1842,-0.0635 c 0.85285,-0.41025 1.54078,-1.09241 1.80292,-1.78788 0.27836,-0.73841 0.22545,-1.95856 -0.11727,-2.70283 -1.19771,-2.60138 -4.82582,-2.65784 -6.08697,-0.0947 -0.28469,0.5782 -0.30245,0.67244 -0.30008,1.58461 0.002,0.86465 0.0276,1.01998 0.2444,1.43267 0.42686,0.81701 1.52132,1.64742 2.49926,1.8963 0.51566,0.13102 1.26317,0.003 1.95778,-0.32811 z m -9.95996,-6.32838 c 1.43943,-0.39326 1.91726,-2.39 0.81846,-3.42034 -0.58847,-0.55183 -1.37732,-0.67721 -2.06146,-0.32772 -1.33799,0.68353 -1.46852,2.62095 -0.23335,3.46712 0.53079,0.36365 0.90956,0.43575 1.47663,0.28073 z m -7.94493,-4.12573 c 1.19431,-0.58791 1.84433,-1.64916 1.84433,-3.01101 0,-1.38043 -0.70297,-2.50005 -1.95355,-3.1113 -0.5465,-0.2669 -0.69997,-0.30007 -1.40223,-0.30007 -0.72667,-2.4e-4 -0.84389,0.0277 -1.49345,0.34823 -0.79663,0.39367 -1.2516,0.85116 -1.62535,1.63416 -0.20887,0.43727 -0.24204,0.62785 -0.24204,1.38314 0,0.75382 0.0355,0.94828 0.24282,1.39427 0.62776,1.33881 1.78919,2.0436 3.27528,1.98761 0.62559,-0.0236 0.85309,-0.0781 1.35411,-0.32455 z m 17.53125,0.2219 c 0.99528,-0.29968 1.89914,-1.16028 2.23306,-2.12649 0.21242,-0.61484 0.19821,-1.70211 -0.0316,-2.27538 -0.53169,-1.33548 -1.88299,-2.28906 -3.24377,-2.28906 -0.9364,0 -2.1236,0.6158 -2.68724,1.39388 -0.49189,0.67901 -0.67162,1.31311 -0.62428,2.20233 0.0501,0.93716 0.26099,1.47308 0.81913,2.07849 0.91291,0.99041 2.29671,1.38841 3.53327,1.01623 z m -8.76963,-5.27391 c 0.48948,-0.17177 1.1808,-0.69599 1.46979,-1.11453 0.50622,-0.73313 0.66238,-1.21673 0.66337,-2.05443 6.7e-4,-0.68105 -0.0355,-0.85632 -0.26968,-1.33708 -0.35101,-0.71749 -1.18112,-1.54814 -1.86897,-1.87036 -0.44163,-0.20691 -0.66247,-0.25032 -1.2721,-0.25032 -0.62961,-6e-5 -0.8187,0.0395 -1.29097,0.27125 -0.70838,0.34746 -1.46126,1.09994 -1.77934,1.77875 -0.21361,0.45526 -0.24915,0.6515 -0.24836,1.36181 6.7e-4,0.71761 0.0355,0.90764 0.26534,1.40477 0.72863,1.5829 2.6684,2.3937 4.33092,1.81029 z m 35.89558,24.2143 c -2.71903,-0.30797 -7.05729,-2.25073 -9.46408,-4.23856 -3.47499,-2.86996 -5.59394,-5.82096 -7.08469,-9.86642 -0.90893,-2.46657 -0.89163,-2.33148 -0.89068,-6.96186 6.7e-4,-3.89245 0.008,-4.09644 0.21321,-5.02149 0.56521,-2.56734 2.4394,-6.28081 4.36152,-8.64184 3.50906,-4.31038 8.50012,-7.09854 13.91034,-7.77076 1.11814,-0.13891 4.0229,-0.11962 5.26191,0.0356 6.33805,0.79016 11.74649,4.11116 15.26034,9.37042 4.86024,7.27445 4.82459,16.62416 -0.0916,24.01634 -2.2671,3.4089 -5.4255,5.94702 -9.73258,7.82108 -2.63737,1.14758 -3.37754,1.27364 -7.69883,1.31147 -1.82577,0.0151 -3.64591,-0.009 -4.04474,-0.0529 z m 4.87466,-4.17953 c 1.64099,-0.43902 2.74485,-1.68955 3.01283,-3.41328 0.13384,-0.86142 0.0197,-1.74523 -0.32417,-2.49491 -0.27402,-0.59819 -1.03934,-1.4448 -1.60727,-1.77766 -1.35782,-0.7957 -3.23639,-0.77044 -4.5321,0.0608 -1.54366,0.99053 -2.29394,2.96785 -1.77476,4.67719 0.32298,1.06319 1.21745,2.23069 2.03176,2.65176 0.77551,0.40103 2.27957,0.54033 3.19363,0.29573 z m 11.42912,-6.53101 c 1.11175,-0.36721 1.93874,-1.09987 2.47715,-2.19404 0.28507,-0.57962 0.29415,-0.63429 0.29415,-1.80304 v -1.20535 l -0.34706,-0.70243 c -0.83517,-1.68942 -2.98638,-2.71457 -4.72482,-2.25163 -2.01273,0.53607 -3.27077,2.09013 -3.29517,4.07049 -0.0237,1.72589 0.82616,3.1207 2.34921,3.86695 1.09284,0.53543 2.08646,0.60247 3.24674,0.21912 z m -22.58292,0.0589 c 0.96988,-0.25269 1.7311,-0.80151 2.3003,-1.65911 0.98935,-1.49052 0.97655,-3.33872 -0.0355,-4.90056 -0.51412,-0.79461 -1.35138,-1.35102 -2.47225,-1.64296 -1.9318,-0.50322 -3.90923,0.44736 -4.79028,2.30255 -0.2906,0.61208 -0.34193,0.82229 -0.38063,1.55966 -0.0707,1.35663 0.2602,2.27135 1.16597,3.22117 0.5613,0.58855 1.08624,0.9376 1.69765,1.12866 0.53706,0.16781 1.85144,0.16308 2.51308,-0.0118 z m 11.08853,-8.39405 c 0.58733,-0.29258 1.18326,-0.95067 1.31995,-1.45747 0.20255,-0.75076 -0.11765,-1.88996 -0.68449,-2.4351 -0.40175,-0.38656 -1.1897,-0.68103 -1.82369,-0.68182 -0.65169,-7e-4 -1.13509,0.23731 -1.63492,0.80501 -1.10069,1.25041 -0.77294,3.09384 0.67881,3.81806 0.56123,0.27994 1.52898,0.25823 2.14434,-0.0487 z m -10.92357,-4.57147 c 1.47943,-0.48572 2.57768,-1.80955 2.84637,-3.43111 0.28428,-1.71479 -0.74913,-3.65282 -2.36952,-4.44443 -0.52873,-0.25823 -0.60856,-0.27008 -1.79976,-0.27008 -1.21599,0 -1.26112,0.009 -1.84422,0.29494 -1.1859,0.58492 -2.17537,1.86255 -2.40181,3.10109 -0.17254,0.94398 0.13898,2.27193 0.73649,3.14054 1.08076,1.57092 3.00146,2.21047 4.83245,1.60937 z m 22.46905,0.002 c 0.61248,-0.20967 1.38771,-0.72844 1.76178,-1.17856 0.83544,-1.00531 1.18851,-2.53104 0.90228,-3.89908 -0.42259,-2.01994 -2.61865,-3.47184 -4.72497,-3.12399 -1.70349,0.28113 -3.00698,1.49376 -3.52134,3.27546 -0.20295,0.70244 -0.1374,1.4725 0.19584,2.30495 0.90971,2.27253 3.17973,3.3771 5.38637,2.62122 z m -11.78444,-6.36039 c 2.47664,-0.51641 4.01336,-3.16074 3.17657,-5.466 -0.55459,-1.52792 -1.53174,-2.4227 -3.03194,-2.7764 -1.51484,-0.35733 -2.82385,0.0395 -4.01453,1.21333 -0.7992,0.7885 -1.13616,1.52051 -1.19783,2.60178 -0.077,1.34927 0.34272,2.40018 1.33495,3.34204 1.03295,0.98066 2.37015,1.36945 3.73278,1.08525 z"
       style="fill:#93a7ac;stroke-width:0.0922105" />
  </g>
  <g
     inkscape:groupmode="layer"
     id="layer2"
     inkscape:label="znaky"
     style="display:inline">
    <g
       inkscape:label="diskuze"
       id="g1033"
       inkscape:groupmode="layer"
       style="display:inline" />
    <g
       inkscape:groupmode="layer"
       id="g1081"
       inkscape:label="cestoprednaska"
       style="display:none">
      <path
         style="fill:#93a7ac;fill-opacity:0.36;stroke-width:0.231547"
         d="m 74.005574,60.047765 c -9.7196,-2.135629 -17.31024,-9.273839 -19.69134,-18.517618 -1.9285,-7.486762 -0.32711,-15.465582 4.35088,-21.677797 3.37923,-4.48746 8.92889,-8.08368 14.65981,-9.49959 1.60809,-0.3973499 2.78292,-0.5157199 5.20296,-0.5243299 5.855765,-0.021 10.738021,1.5621999 15.208815,4.9310499 6.679381,5.03305 10.309741,12.408405 10.328031,20.982006 0.006,2.526769 -0.0909,3.374989 -0.59944,5.282319 -2.65741,9.966421 -10.234263,17.176581 -20.017144,19.048371 -2.137833,0.40903 -7.533482,0.395081 -9.442572,-0.02641 z m 3.36459,-7.75072 v -5.09402 h -3.58895 c -2.30461,0 -3.58897,0.0853 -3.58897,0.237979 0,0.456841 1.3898,2.986392 2.68954,4.895152 1.37287,2.01622 3.95202,5.054719 4.29055,5.054719 0.10876,0 0.19781,-2.2923 0.19781,-5.09402 z m 4.56914,3.291009 c 1.847734,-2.124379 5.155766,-7.27728 5.155766,-8.031099 0,-0.067 -1.615014,-0.12247 -3.588951,-0.12247 h -3.588951 v 4.98638 c 0,5.734402 -0.08925,5.594612 2.022136,3.167121 z m 6.342443,0.235342 c 0.811853,-0.369779 2.101282,-1.07061 2.865393,-1.557369 1.558221,-0.992632 4.925993,-4.2887 6.092883,-5.963121 l 0.76646,-1.09986 h -3.832544 -3.832572 l -1.073242,2.141821 c -1.270328,2.535078 -2.610835,4.653669 -4.100124,6.479997 -0.595654,0.730491 -1.083019,1.370772 -1.083019,1.422871 0,0.173731 2.700772,-0.742921 4.196765,-1.424339 z m -15.349543,1.1625 c -0.0423,-0.0955 -0.75444,-1.085739 -1.58222,-2.20046 -0.8278,-1.11473 -2.14512,-3.250722 -2.92741,-4.74667 l -1.42237,-2.71992 -3.72952,-0.0637 c -2.73269,-0.0467 -3.72953,0.0104 -3.72953,0.207719 0,0.149241 0.38163,0.75089 0.84805,1.337101 2.87133,3.608591 6.08396,5.987151 10.22442,7.56993 2.12106,0.81084 2.44326,0.896419 2.31858,0.615911 z m -6.67623,-12.524582 c 0,-0.234277 -0.14489,-0.907827 -0.32204,-1.496358 -0.17706,-0.588561 -0.44467,-1.98569 -0.59456,-3.104769 -0.14986,-1.119093 -0.32227,-2.373353 -0.38308,-2.787262 l -0.11064,-0.75249 h -4.51884 -4.51883 l 0.1455,1.099812 c 0.28966,2.190469 0.64444,3.682828 1.32104,5.557099 l 0.6896,1.91027 h 4.14593 c 3.87226,0 4.14592,-0.0282 4.14592,-0.426302 z M 88.67984,43.093146 c 0.437798,-1.644322 0.718595,-3.16606 1.068114,-5.78866 l 0.131184,-0.984051 h -4.980977 -4.980972 v 4.283569 4.283612 h 4.142465 4.142446 z m 11.33296,-0.115821 c 0.6766,-1.874269 1.03138,-3.366649 1.32104,-5.5571 l 0.1455,-1.099809 h -4.529327 -4.529325 l -2.33e-4,0.868288 c -5.29e-4,1.034611 -0.509056,4.022752 -1.02135,5.999822 -0.202377,0.780219 -0.367681,1.481709 -0.367681,1.55884 0,0.0772 1.865649,0.140319 4.145909,0.140319 h 4.14591 z m -22.642636,-2.6049 v -4.28358 h -4.97824 c -5.71958,0 -5.16728,-0.30587 -4.72818,2.618441 0.21739,1.447728 0.96282,4.804539 1.25672,5.659318 0.0747,0.217181 1.14199,0.289312 4.2746,0.289312 h 4.1751 z m -12.50315,-7.46731 c 4.5e-4,-1.28901 0.65151,-4.8187 1.30257,-7.06212 0.10897,-0.37539 -0.1918,-0.40523 -4.07885,-0.40523 h -4.19644 l -0.45768,1.03465 c -0.59269,1.33982 -1.27074,4.02138 -1.48022,5.85383 l -0.16543,1.447181 h 4.53786 4.53788 l 3.5e-4,-0.868311 z m 12.50315,-3.29952 v -4.16783 h -4.24125 -4.24127 l -0.38412,1.67871 c -0.35473,1.55017 -0.63256,3.18476 -0.96415,5.67286 l -0.13118,0.984091 h 4.98097 4.98096 z m 12.502518,3.76262 c -0.0019,-0.90167 -0.740765,-4.90299 -1.175512,-6.36752 l -0.463971,-1.56293 h -4.158017 -4.158014 v 4.16783 4.167831 h 4.978236 c 4.587158,0 4.978151,-0.0318 4.977278,-0.405211 z m 11.577348,0.11561 c -0.004,-1.0172 -0.75799,-4.51696 -1.31103,-6.07804 l -0.656237,-1.85239 -4.25252,-0.0631 c -3.992645,-0.0596 -4.242409,-0.0382 -4.086942,0.3473 0.296177,0.73433 1.00512,4.5363 1.166691,6.25707 l 0.15775,1.6787 h 4.491631 c 3.439417,0 4.491427,-0.0679 4.490757,-0.28931 z M 77.370164,17.7913 v -5.09935 l -0.53013,0.34734 c -0.78051,0.51143 -2.65446,2.74955 -4.05977,4.84869 -1.25042,1.86783 -2.58802,4.330305 -2.58802,4.764475 0,0.15319 1.28436,0.23798 3.58897,0.23798 h 3.58895 z m 9.724906,4.861155 c 0,-0.44959 -1.441281,-3.120605 -2.682692,-4.971625 -0.683271,-1.01878 -1.969228,-2.63381 -2.857675,-3.58895 l -1.615367,-1.73658 -0.01038,5.26766 -0.01038,5.267655 h 3.588949 c 2.304632,0 3.58897,-0.0853 3.58897,-0.23797 z m 10.651103,-0.0313 c 0,-0.42827 -1.72616,-2.548015 -3.298912,-4.051105 -1.583441,-1.51329 -3.559619,-2.92057 -5.428697,-3.86587 -1.339611,-0.67751 -4.696311,-1.85433 -4.850204,-1.70044 -0.05438,0.0546 0.384953,0.69302 0.976413,1.41909 1.360371,1.67002 3.221538,4.64631 4.252601,6.8006 l 0.797266,1.665755 h 3.775758 c 2.705585,0 3.775775,-0.0758 3.775775,-0.26809 z m -29.989269,-1.29488 c 0.97672,-2.136355 2.66198,-4.883825 4.1248,-6.724655 0.74687,-0.93982 1.31452,-1.75215 1.26149,-1.80522 -0.16149,-0.1617 -2.71508,0.78923 -4.70043,1.75018 -1.03171,0.4994 -2.51029,1.38486 -3.28571,1.96779 -1.5757,1.18444 -4.5822,4.30194 -5.22379,5.416565 l -0.41831,0.72673 h 3.81663 3.81663 z"
         id="path1071" />
    </g>
    <g
       inkscape:label="seminar"
       id="g1021"
       inkscape:groupmode="layer"
       style="display:none">
      <path
         id="path1015"
         d="m 67.709308,57.995556 c -0.82289,-0.692427 -0.830634,-1.726862 -0.02363,-3.15686 1.466541,-2.598557 3.167438,-7.540629 3.167438,-9.203202 0,-0.399889 -0.421561,-1.172345 -1.359917,-2.491983 -2.648691,-3.724778 -4.183042,-6.816647 -5.105957,-10.288948 -0.694423,-2.612519 -0.732016,-6.999112 -0.08069,-9.392749 1.497554,-5.502091 5.185151,-9.752385 10.205363,-11.762579 2.612381,-1.046059 3.943611,-1.255516 7.989729,-1.257124 3.188404,-0.0014 3.874988,0.05664 5.40288,0.456423 6.615505,1.730706 11.459162,6.146938 13.346156,12.168397 0.62348,1.98954 0.60426,4.61243 -0.0488,6.65054 l -0.48607,1.517214 0.58539,0.555878 c 1.04658,0.993714 2.50811,2.951636 3.01312,4.036537 0.59596,1.280124 0.62912,2.298851 0.10824,3.320073 -0.4453,0.872782 -0.99369,1.352701 -2.1328,1.866356 -0.73419,0.331076 -0.80787,0.434774 -0.90672,1.276104 -0.32191,2.739495 -0.46598,3.411388 -0.84029,3.918956 -0.29191,0.39576 -0.43838,0.979324 -0.52074,2.074596 -0.141413,1.87985 -0.84651,3.315467 -2.004815,4.081692 -0.758968,0.502095 -0.863698,0.515551 -4.215736,0.542281 -1.890568,0.01422 -3.508642,0.103916 -3.595704,0.197432 -0.0872,0.09345 -0.450291,1.130475 -0.807181,2.304373 -0.504775,1.660148 -0.776112,2.241335 -1.221389,2.616033 l -0.572459,0.48171 h -9.644144 -9.64403 z m 19.961393,-3.931171 c 0.481568,-1.504026 0.913256,-2.498031 1.182024,-2.721926 0.374903,-0.312285 0.827395,-0.349398 3.948277,-0.32396 3.910484,0.03185 4.190559,-0.0404 4.848003,-1.250216 0.254623,-0.468582 0.348181,-1.093234 0.34961,-2.33413 0.0015,-1.635614 0.02244,-1.71217 0.594266,-2.208688 0.520829,-0.45232 0.562512,-0.563193 0.3455,-0.919012 -0.339999,-0.557479 -0.31011,-0.880632 0.131836,-1.424706 0.318068,-0.391637 0.361156,-0.674673 0.269759,-1.771865 l -0.108798,-1.305771 0.752659,-0.141209 c 1.279653,-0.24006 2.400233,-0.873386 2.661513,-1.504267 0.20996,-0.506781 0.17667,-0.707178 -0.26889,-1.617769 -0.27968,-0.571662 -1.22317,-1.832886 -2.09666,-2.802743 -1.829622,-2.031511 -1.852749,-2.126968 -1.092061,-4.508842 0.621957,-1.9475 0.645608,-3.743929 0.07382,-5.598601 -1.743262,-5.653266 -6.377633,-9.685532 -12.61147,-10.972893 -2.772346,-0.572523 -7.276844,-0.422664 -9.767727,0.324981 -5.026427,1.5087 -8.596418,4.981884 -10.243668,9.965914 -1.152683,3.48766 -1.097446,6.992572 0.170338,10.813647 0.997016,3.004752 2.04982,4.951585 4.779458,8.837857 1.196777,1.703948 1.238973,1.805644 1.238973,2.985595 0,2.263867 -1.471229,6.853133 -3.177566,9.912012 l -0.579347,1.03856 8.920771,-0.05135 8.920772,-0.05135 z M 86.371846,33.533853 c -0.208172,-0.317729 -0.477268,-0.474376 -0.763089,-0.444228 -0.370767,0.03902 -0.432666,-0.03871 -0.386274,-0.486307 0.03851,-0.37042 -0.06703,-0.598236 -0.345521,-0.747336 -0.396785,-0.21235 -0.562516,-0.792901 -0.226348,-0.792901 0.246215,0 0.418162,-0.766266 0.201918,-0.899911 -0.327775,-0.202517 -0.184396,-0.679569 0.2043,-0.679569 0.450739,0 0.716087,-0.352355 0.635236,-0.843539 -0.04992,-0.303805 0.04829,-0.333026 0.745325,-0.221566 0.66266,0.105956 0.802902,0.07206 0.802902,-0.192952 0,-0.1897 0.161779,-0.321383 0.394872,-0.321383 0.233152,0 0.394869,0.131624 0.394869,0.321383 0,0.265239 0.14018,0.298948 0.802904,0.192952 0.697052,-0.111395 0.795324,-0.08232 0.745323,0.221566 -0.08088,0.491184 0.184598,0.843539 0.635214,0.843539 0.388657,0 0.5321,0.477002 0.204324,0.679569 -0.216223,0.133675 -0.04421,0.899911 0.201918,0.899911 0.336147,0 0.170336,0.580551 -0.226347,0.792901 -0.278611,0.14915 -0.383951,0.376916 -0.345524,0.747336 0.04564,0.440445 -0.02363,0.532856 -0.399007,0.532856 -0.249818,0 -0.612986,0.209683 -0.806977,0.465966 -0.315183,0.41636 -0.398192,0.43757 -0.779737,0.199261 -0.343362,-0.214439 -0.503796,-0.218699 -0.819163,-0.0218 -0.51215,0.31983 -0.497848,0.323871 -0.87116,-0.245842 z m 1.940266,-1.991281 c 0.453936,-0.453923 0.379405,-1.017372 -0.183172,-1.386101 -0.45726,-0.299595 -0.529958,-0.299595 -0.987198,0 -0.271477,0.177875 -0.493565,0.492709 -0.493565,0.699624 0,0.479421 0.512333,0.996731 0.987174,0.996731 0.201713,0 0.50626,-0.139565 0.676903,-0.310254 z m -13.75706,2.148523 c -0.237817,-0.06211 -0.345522,-0.286248 -0.345522,-0.718921 0,-0.530178 -0.133865,-0.709438 -0.854287,-1.144637 -0.761665,-0.460063 -0.916842,-0.489433 -1.431397,-0.270873 -0.521704,0.221586 -0.62853,0.197442 -1.112421,-0.252558 l -0.535316,-0.497695 0.391162,-0.549327 0.39116,-0.549318 -0.438145,-0.901833 c -0.384356,-0.791089 -0.515552,-0.901802 -1.068699,-0.901802 -0.657831,0 -0.870241,-0.260094 -0.870241,-1.065502 0,-0.306693 0.203548,-0.537954 0.668976,-0.759879 0.578919,-0.276077 0.680816,-0.433807 0.756835,-1.171838 0.07742,-0.751038 0.01833,-0.911705 -0.48617,-1.346378 -0.509155,-0.437849 -0.550577,-0.554912 -0.366814,-1.03655 0.18093,-0.474007 0.313124,-0.542941 1.041741,-0.542941 0.666695,0 0.962176,-0.123673 1.468925,-0.614867 0.621423,-0.602282 0.628879,-0.630361 0.365714,-1.376276 -0.262534,-0.744101 -0.255689,-0.770687 0.300595,-1.166802 l 0.56928,-0.405362 0.653921,0.561805 c 0.639331,0.549298 0.674398,0.55586 1.573635,0.294521 0.823338,-0.239285 0.937765,-0.34419 1.092189,-1.001313 0.156276,-0.664823 0.240649,-0.739741 0.895508,-0.794632 0.688825,-0.05765 0.729291,-0.0271 0.855779,0.647015 0.144461,0.770687 0.416061,0.987522 1.488099,1.188637 0.578979,0.108571 0.807955,0.04364 1.297714,-0.368518 0.614168,-0.516771 0.688681,-0.507887 1.614913,0.192959 0.0379,0.02877 -0.03484,0.366762 -0.161574,0.751182 -0.215061,0.651605 -0.189083,0.750888 0.385415,1.465608 0.584523,0.727332 0.656588,0.759261 1.405151,0.622382 0.750926,-0.137337 0.801498,-0.114508 1.04651,0.472622 0.243196,0.582739 0.225227,0.644347 -0.32482,1.112968 -0.538454,0.45873 -0.572032,0.564339 -0.446175,1.403517 0.117162,0.782051 0.229647,0.952104 0.812948,1.23025 0.595525,0.284001 0.661234,0.388174 0.546768,0.866969 -0.18949,0.7928 -0.23894,0.840373 -0.872892,0.840373 -0.473011,0 -0.648321,0.140591 -0.975523,0.781872 -0.484358,0.949427 -0.493159,1.155945 -0.06907,1.624558 0.310761,0.343407 0.297721,0.397965 -0.22541,0.944 -0.527186,0.550264 -0.58322,0.565044 -1.110347,0.292451 -0.515814,-0.266763 -0.608236,-0.251206 -1.304741,0.219417 -0.531038,0.358823 -0.778371,0.687937 -0.848319,1.128731 -0.07987,0.503389 -0.226187,0.658689 -0.766024,0.813065 -0.603394,0.172569 -0.704207,0.140163 -1.052988,-0.33871 -0.3248,-0.445849 -0.533768,-0.529512 -1.323083,-0.529512 -0.797748,0 -0.976663,0.07355 -1.201481,0.493602 -0.255812,0.477958 -0.621218,0.569213 -1.431436,0.357491 z m 3.72513,-5.769955 c 1.425853,-0.647512 1.966387,-1.966539 1.34366,-3.27883 -0.512047,-1.079049 -1.32363,-1.51648 -2.633368,-1.419342 -0.929088,0.06887 -1.155291,0.173396 -1.727568,0.797807 -0.913601,0.996941 -0.930716,2.177527 -0.04603,3.184987 0.526471,0.59965 1.336424,1.022181 2.052999,1.071078 0.108597,0.0079 0.563273,-0.152604 1.010384,-0.3557 z m 11.13066,-0.362546 c -0.0014,-0.48142 -1.026766,-1.041139 -1.461326,-0.797946 -0.482259,0.269869 -0.9635,-0.182572 -0.816637,-0.76775 0.142016,-0.565769 -0.39432,-1.445188 -0.881327,-1.445188 -0.548315,0 -0.687925,-0.64351 -0.208683,-0.961915 0.492225,-0.327045 0.549458,-1.30835 0.09128,-1.564791 -0.49756,-0.278446 -0.257398,-0.918802 0.371807,-0.991315 0.713517,-0.08228 1.237851,-0.846061 0.950011,-1.383921 -0.301491,-0.563315 0.241323,-1.003208 0.804188,-0.651697 0.554204,0.346094 1.496817,0.101091 1.663223,-0.432526 0.256443,-0.822196 0.78279,-0.938398 1.099747,-0.242765 0.290205,0.636942 1.316584,0.889395 1.667137,0.410011 0.167279,-0.228839 0.382257,-0.294385 0.668002,-0.20376 0.338756,0.107551 0.398169,0.239125 0.303201,0.671561 -0.154036,0.701014 0.452797,1.295619 1.180209,1.156559 0.636704,-0.121634 1.044897,0.462431 0.588091,0.841532 -0.551294,0.457555 -0.161171,1.773477 0.525575,1.773477 0.387721,0 0.07501,0.887869 -0.333278,0.946311 -0.542304,0.07763 -0.952496,1.116262 -0.567143,1.436072 0.39852,0.330756 -0.01631,1.014009 -0.572377,0.947047 -0.609073,-0.07305 -1.31915,0.366508 -1.31915,0.816727 0,0.209542 -0.192951,0.484198 -0.428569,0.610358 -0.349027,0.186841 -0.472237,0.169723 -0.663454,-0.09166 -0.297438,-0.406766 -1.392745,-0.424462 -1.546027,-0.02509 -0.164838,0.429728 -1.112891,0.387737 -1.114481,-0.04936 z m 2.052043,-3.199845 c 0.683036,-0.259686 1.16232,-1.222438 0.922566,-1.8531 -0.405405,-1.066289 -1.754708,-1.447128 -2.538847,-0.716573 -0.878208,0.818151 -0.665981,2.123425 0.416122,2.559302 0.57179,0.230325 0.620548,0.230732 1.200159,0.01019 z"
         style="fill:#93a7ac;fill-opacity:0.36;stroke-width:0.197436" />
    </g>
    <g
       inkscape:label="workshop"
       id="g1009"
       inkscape:groupmode="layer"
       style="display:none">
      <path
         id="path1001"
         d="m 66.616018,59.446655 c -0.39331,-0.121079 -0.82085,-0.512979 -1.00232,-0.918488 -0.13677,-0.30566 -0.15009,-0.428731 -0.17078,-1.58692 l -0.0214,-1.255559 -0.38625,-0.147961 c -0.88281,-0.337952 -1.99635,-0.977759 -2.80247,-1.61027 -0.19172,-0.150331 -0.37021,-0.273589 -0.39671,-0.273589 -0.0264,0 -0.4195,0.215979 -0.87332,0.479848 -0.45382,0.263861 -0.96611,0.545661 -1.13842,0.62598 -0.62292,0.2906 -1.41772,0.138441 -1.89212,-0.361929 -0.11013,-0.116321 -0.73652,-1.13947 -1.39188,-2.273842 -0.8596,-1.48794 -1.20307,-2.139547 -1.23297,-2.338918 -0.0847,-0.565359 0.0904,-1.125149 0.47175,-1.506379 0.10395,-0.10418 0.64274,-0.44999 1.19725,-0.76894 0.90928,-0.52302 1.00471,-0.593852 0.97253,-0.722111 -0.19909,-0.79283 -0.19743,-3.087699 0.002,-3.884729 0.0297,-0.118222 -0.0837,-0.201952 -0.92643,-0.685531 -1.0311,-0.59169 -1.36765,-0.85943 -1.56772,-1.24724 -0.15438,-0.299231 -0.2136,-0.859899 -0.12464,-1.181399 0.0935,-0.33905 2.37802,-4.278471 2.62317,-4.523611 0.34305,-0.34305 0.60995,-0.44005 1.21075,-0.44005 h 0.5326 l 1.08012,0.61806 1.08012,0.61805 0.22145,-0.19458 c 0.5808,-0.50993 1.76962,-1.22333 2.68992,-1.61417 l 0.63027,-0.26767 0.0369,-1.27167 c 0.0409,-1.4132 0.0742,-1.55209 0.47718,-1.99818 0.12606,-0.13963 0.34397,-0.315191 0.48417,-0.390221 0.24814,-0.13272 0.323,-0.13701 2.81769,-0.15461 2.81501,-0.019 2.88399,-0.0143 3.34921,0.355631 0.12916,0.10228 0.31807,0.33618 0.41971,0.51964 0.18434,0.33266 0.18482,0.33708 0.21622,1.63634 l 0.0314,1.30279 0.52049,0.21289 c 0.92724,0.37932 1.89376,0.94263 2.71715,1.58365 l 0.35537,0.27664 0.87344,-0.5063 c 1.26251,-0.73184 1.38385,-0.77865 1.92856,-0.74368 0.51745,0.0333 0.92072,0.22692 1.1799,0.56704 0.25166,0.33021 2.39582,4.07736 2.48131,4.33635 0.12868,0.39007 0.0516,1.043671 -0.1646,1.396709 -0.20147,0.328872 -0.50451,0.54764 -1.69277,1.222291 l -0.74784,0.424611 0.0775,0.515268 c 0.0997,0.662072 0.10014,2.4965 6.9e-4,3.156582 l -0.0771,0.510879 0.97199,0.5543 c 1.4612,0.833292 1.74149,1.184661 1.68222,2.108599 l -0.0295,0.458981 -1.14306,1.982889 c -0.6287,1.090581 -1.22419,2.094842 -1.32333,2.23174 -0.34481,0.47599 -1.05667,0.730551 -1.70349,0.609211 -0.11798,-0.0214 -0.68769,-0.3092 -1.26601,-0.63795 -0.91614,-0.520761 -1.06571,-0.587211 -1.16181,-0.51616 -1.15509,0.85407 -1.92434,1.31826 -2.83294,1.70955 l -0.64635,0.27845 -0.0326,1.271209 c -0.0369,1.440892 -0.074,1.58732 -0.51659,2.039379 -0.49378,0.504351 -0.57644,0.516951 -3.35365,0.511982 -1.90354,-0.0021 -2.48759,-0.02429 -2.71332,-0.093 z m 4.53448,-7.567999 c 1.97699,-0.518329 3.7054,-1.903009 4.62891,-3.70833 2.13669,-4.177019 -0.13843,-9.195358 -4.70232,-10.371598 -1.05169,-0.271071 -2.53087,-0.259731 -3.60588,0.0276 -2.38098,0.636521 -4.29776,2.455759 -5.0516,4.794541 -0.35537,1.10255 -0.44702,2.1654 -0.28146,3.26376 0.35313,2.342438 1.85512,4.42124 3.95095,5.468269 0.47578,0.237628 1.37933,0.54152 1.90803,0.64157 0.76966,0.145809 2.38152,0.0866 3.15334,-0.116081 z m -2.89557,-1.551039 c -0.86231,-0.169119 -1.86596,-0.657691 -2.57096,-1.251569 -0.75287,-0.634191 -1.41373,-1.674112 -1.73149,-2.72474 -0.14748,-0.487791 -0.17031,-0.675082 -0.17578,-1.438032 -0.005,-0.67428 0.0214,-0.985949 0.11394,-1.347168 0.53286,-2.08738 2.09351,-3.644871 4.15325,-4.144812 0.75358,-0.18292 1.90596,-0.180538 2.6192,0.005 0.9218,0.240249 1.81788,0.73484 2.49456,1.376809 1.21489,1.152642 1.80225,2.63901 1.71721,4.345522 -0.0725,1.455849 -0.587,2.601288 -1.641,3.653769 -0.7575,0.756431 -1.73097,1.287201 -2.74044,1.494139 -0.52197,0.107281 -1.76293,0.124172 -2.23859,0.0307 z m 29.07693,2.1914 c -1.63705,-0.18982 -3.09047,-0.92601 -4.26914,-2.16205 -0.992317,-1.040649 -1.593097,-2.239849 -1.844587,-3.68209 -0.14439,-0.827839 -0.11346,-2.15329 0.0642,-2.74179 0.0293,-0.097 -1.133433,-1.361709 -11.282733,-12.27208 -1.07396,-1.154471 -3.14145,-3.377671 -4.59445,-4.940441 l -2.64179,-2.84139 -1.20671,-0.0143 c -1.03616,-0.0119 -1.28133,-0.034 -1.73472,-0.1577 -2.74862,-0.74985 -4.76469,-2.916343 -5.23763,-5.628426 -0.1068,-0.612406 -0.1225,-1.879273 -0.0276,-2.220918 0.088,-0.316859 0.32152,-0.488454 0.66478,-0.488454 0.32702,0 0.32171,-0.0048 1.58939,1.378496 1.13692,1.240463 1.40666,1.398263 1.95177,1.141892 0.12631,-0.05947 1.08954,-0.905954 2.1405,-1.881246 2.0516,-1.903844 2.16575,-2.04202 2.07791,-2.515941 -0.0542,-0.292859 -0.19362,-0.468641 -1.35272,-1.706773 -1.05028,-1.121864 -1.13137,-1.259754 -0.9691,-1.648139 0.15271,-0.36555 0.37409,-0.43082 1.31822,-0.388742 1.73353,0.07731 3.22332,0.710549 4.48127,1.904843 1.28093,1.216153 2.02216,2.729257 2.20099,4.493046 0.0683,0.672276 0.0395,1.233946 -0.10752,2.107051 -0.0369,0.219074 -0.0119,0.24845 2.14692,2.568985 1.20131,1.291156 3.86152,4.152376 5.91158,6.358336 2.05003,2.20593 5.010283,5.390631 6.57831,7.077041 1.56802,1.68646 3.07651,3.313931 3.35222,3.616611 l 0.50125,0.550368 0.78324,-0.0362 c 3.714712,-0.171971 6.880712,2.381809 7.428022,5.99126 0.16769,1.106379 0.0925,2.09459 -0.18007,2.367208 -0.20313,0.203131 -0.55398,0.24783 -0.78231,0.0999 -0.0997,-0.0647 -0.63886,-0.610881 -1.19817,-1.21397 -0.55929,-0.603101 -1.10583,-1.14586 -1.21449,-1.206182 -0.23144,-0.128688 -0.59138,-0.14201 -0.83871,-0.0314 -0.24807,0.11108 -3.974672,3.579288 -4.107212,3.822549 -0.12607,0.23145 -0.13772,0.565571 -0.0285,0.812501 0.0414,0.094 0.54074,0.66942 1.10935,1.27902 0.56864,0.609548 1.06813,1.167197 1.10997,1.239159 0.1087,0.186719 0.0978,0.548179 -0.0214,0.71873 -0.21622,0.308718 -0.69074,0.375938 -1.77002,0.250798 z"
         style="fill:#93a7ac;fill-opacity:0.36;stroke-width:0.0626584" />
    </g>
    <g
       inkscape:label="prednaska"
       id="g1045"
       inkscape:groupmode="layer"
       style="display:none">
      <path
         id="path1041"
         d="m 75.600481,58.572148 c -0.996943,-0.607949 -1.583861,-1.892919 -1.364809,-2.988142 0.08826,-0.440836 2.282084,-4.163477 4.875375,-8.272569 l 4.715084,-7.471108 7.73e-4,-7.197844 7.74e-4,-7.197881 h -1.061169 c -0.791427,0 -1.167506,-0.151998 -1.479933,-0.598017 -0.553588,-0.790366 -0.528373,-1.176046 0.119371,-1.823681 0.511076,-0.511076 0.896933,-0.538157 7.668751,-0.538157 6.771793,0 7.157647,0.02723 7.668724,0.538157 0.295993,0.295999 0.538157,0.719795 0.538157,0.941778 0,0.727909 -1.025482,1.47992 -2.018068,1.47992 h -0.94179 v 7.210582 7.21055 l 4.842829,7.656052 c 5.04874,7.981597 5.2367,8.403304 4.43583,9.952042 -0.83434,1.613431 -0.76453,1.605765 -14.579578,1.604652 -11.845532,-0.0015 -12.641987,-0.03102 -13.421481,-0.506334 z m 25.449399,-2.61713 c 0,-0.09064 -2.042705,-3.39014 -4.53933,-7.332414 -2.496654,-3.942281 -4.676159,-7.432263 -4.843408,-7.755521 -0.2045,-0.395254 -0.304092,-3.016893 -0.304092,-8.005089 v -7.41739 h -2.287168 -2.287159 v 7.41739 c 0,5.053703 -0.09835,7.604629 -0.308389,8.005089 -0.169628,0.323258 -2.349138,3.816148 -4.843413,7.761972 -2.494284,3.945824 -4.535055,7.245442 -4.535055,7.332398 0,0.08685 5.388291,0.158133 11.974016,0.158133 6.585682,0 11.973998,-0.07395 11.973998,-0.164654 z M 79.624343,54.648716 c -0.0868,-0.226385 0.817842,-1.918358 2.122219,-3.968913 2.673664,-4.203148 2.504176,-4.140171 5.872411,-2.182287 2.109782,1.226344 2.34015,1.297963 4.132781,1.284413 1.044161,-0.008 2.329137,-0.110795 2.855544,-0.228576 l 0.957109,-0.214264 1.531868,2.416469 c 0.842524,1.329012 1.53189,2.612466 1.53189,2.852086 0,0.39318 -0.918598,0.435661 -9.426173,0.435661 -8.03486,0 -9.448568,-0.05824 -9.577649,-0.394589 z m 7.437918,-33.317234 c -1.513056,-0.765539 -1.288318,-2.950968 0.35975,-3.49849 1.832029,-0.608645 3.166047,2.068817 1.631982,3.275509 -0.836184,0.657746 -1.078796,0.68491 -1.991732,0.222981 z m 2.356734,-5.724072 c -1.867942,-1.013689 -1.723538,-3.924134 0.244625,-4.930647 2.08888,-1.0682831 4.586151,1.107616 3.845811,3.35087 -0.587031,1.778759 -2.41957,2.486519 -4.090436,1.579777 z"
         style="fill:#93a7ac;fill-opacity:0.36;stroke-width:0.269077" />
    </g>
  </g>
  <g
     inkscape:groupmode="layer"
     id="layer3"
     inkscape:label="text"
     style="display:inline" />
</svg>
